<?xml version="1.0" standalone="no"?>
<!DOCTYPE svg PUBLIC "-//W3C//DTD SVG 1.1//EN" "http://www.w3.org/Graphics/SVG/1.1/DTD/svg11.dtd">
<svg xmlns="http://www.w3.org/2000/svg">
<defs >
<font id="OldStandardTT" horiz-adv-x="427" ><font-face
    font-family="Old Standard TT"
    units-per-em="1000"
    panose-1="2 4 5 3 5 5 5 9 3 3"
    ascent="952"
    descent="-282"
    alphabetic="0" />
<glyph unicode=" " glyph-name="space" horiz-adv-x="280" />
<glyph unicode="!" glyph-name="exclam" horiz-adv-x="280" d="M56 23T56 50T73 94T118 112T162 95T180 50T163 6T118 -12T74 5ZM130 158L166 361Q178 430 185 493Q194 568 204 624Q218 694 274 694Q300 694 313 676T326 624Q326 586 268 454Q236 380 224 346L154
158H130Z" />
<glyph unicode="&quot;" glyph-name="quotedbl" horiz-adv-x="394" d="M172 520L192 666Q200 730 242 730Q266 730 266 704Q266 692 258 671L196 520H172ZM326 520L346 666Q354 730 396 730Q420 730 420 704Q420 692 412 671L350 520H326Z" />
<glyph unicode="#" glyph-name="numbersign" horiz-adv-x="684" d="M56 196L67 236H188L282 450H125L136 490H299L381 684H425L342 490H488L571 684H615L532 490H665L654 450H516L424 236H593L582 196H405L322 0H278L361 196H216L132 0H88L172 196H56ZM232 236H380L472
450H326L232 236Z" />
<glyph unicode="$" glyph-name="dollar" horiz-adv-x="580" d="M50 142Q50 184 73 216T130 248Q153 248 168 236T184 201Q184 182 170 168T129 153Q112 153 104 138Q98 129 98 112Q98 84 118 61T173 25L260 348L233 363Q210 376 196 389T171 429T160 493Q160 534
177 570T223 630T285 670T354 694L372 762H404L387 699Q394 700 406 700Q426 700 442 697L460 762H492L473 691Q528 674 561 635T594 552Q594 500 570 471T506 441Q489 441 474 451T458 482Q458 502 471 516T504 534Q528 539 538 546Q550 554 550 576Q550 599 527
623T464 659L386 370L419 351Q436 342 447 334T471 313T492 285T505 248T510 198Q510 124 447 64T283 -12L264 -80H232L250 -15Q241 -16 224 -16Q212 -16 194 -14L176 -80H144L164 -7Q110 10 80 52T50 142ZM216 529Q216 468 256 445L282 430L344 660Q320 654 299
643T258 617T227 579T216 529ZM203 18Q221 16 232 16Q250 16 258 17L336 304L288 332L203 18ZM310 414L358 386L434 666Q412 668 400 668Q386 668 378 667L310 414ZM291 21Q360 34 399 75T438 174Q438 199 434 217T420 247T405 264T386 276L364 289L291 21Z" />
<glyph unicode="%" glyph-name="percent" horiz-adv-x="860" d="M572 106Q572 66 589 45T628 24Q686 24 726 88T766 238Q766 278 749 299T710 320Q652 320 612 256T572 106ZM500 106Q500 135 509 167T535 231T575 287T630 328T696 344Q740 344 767 310T794 222Q794
193 785 161T759 97T719 41T664 0T598 -16Q554 -16 527 18T500 106ZM128 462Q128 491 137 523T163 587T203 643T258 684T324 700Q360 700 386 676T419 610Q426 595 453 587T504 578Q560 578 619 609T718 683L750 724L774 700L188 -24L164 0L644 593L639 595Q607
576 571 565T504 554Q460 554 422 572Q421 536 407 496T367 421T305 363T226 340Q182 340 155 374T128 462ZM200 462Q200 422 217 401T256 380Q294 380 326 409T375 485T394 588Q374 602 363 620T351 652T357 672Q349 676 338 676Q280 676 240 612T200 462Z" />
<glyph unicode="&amp;" glyph-name="ampersand" horiz-adv-x="740" d="M56 129Q56 175 75 218T122 291T185 348T249 388T301 411L359 432Q364 480 379 527T418 613T478 677T554 702Q578 702 595 693T620 669T631 640T635 612Q635 584 624 560T598 519T560 489T522
468T488 455L429 434V169L604 401Q648 458 692 458Q724 458 740 439T756 390Q756 372 745 355T710 337Q698 337 688 343T678 367Q678 383 691 396Q702 407 702 416Q702 422 697 427T682 432Q672 432 663 426T647 412T626 388L430 140Q430 124 430 116T431 92T434
67T440 46T450 28T464 17T484 12Q506 12 535 35T590 91T635 153T664 202L682 192Q674 176 665 160T640 117T606 69T567 27T522 -6T474 -18Q448 -18 428 -11T397 11T379 39T367 72Q350 54 337 42T302 14T255 -10T203 -18Q139 -18 98 20T56 129ZM429 456L478 474Q498
480 516 489T554 515T587 555T599 611Q599 624 596 636T582 660T552 672Q538 672 522 666T489 643T459 604T438 542T429 456ZM152 124Q152 69 171 41T225 12Q246 12 266 19T304 40T333 65T361 95Q357 107 357 131V406L321 393Q241 364 197 292T152 124Z" />
<glyph unicode="&apos;" glyph-name="quotesingle" horiz-adv-x="240" d="M172 520L192 666Q200 730 242 730Q266 730 266 704Q266 692 258 671L196 520H172Z" />
<glyph unicode="(" glyph-name="parenleft" horiz-adv-x="370" d="M84 92Q84 185 111 279T187 455T297 607T430 730L454 706Q393 656 343 601T259 497T201 397T162 303T140 219T129 148T126 92Q126 20 150 -50T216 -174L184 -198Q141 -147 113 -68T84 92Z" />
<glyph unicode=")" glyph-name="parenright" horiz-adv-x="370" d="M-62 -174Q-1 -124 49 -69T133 35T191 135T230 229T252 313T263 384T266 440Q266 512 242 582T176 706L208 730Q251 679 279 600T308 440Q308 347 281 253T205 77T95 -75T-38 -198L-62 -174Z" />
<glyph unicode="*" glyph-name="asterisk" horiz-adv-x="580" d="M162 411Q162 449 229 458Q264 462 303 484L308 488Q313 492 313 495T308 502L303 506Q264 528 229 532Q162 541 162 579Q162 594 172 604Q182 616 199 616Q226 616 255 577Q274 552 311 528Q320
522 325 522Q333 522 333 537Q333 578 319 614Q307 642 307 657Q307 676 317 688Q328 700 345 700T373 688Q383 676 383 657Q383 642 371 614Q357 578 357 537Q357 522 365 522Q370 522 379 528Q416 552 435 577Q464 616 491 616Q508 616 518 604Q528 594 528 579Q528
541 461 532Q426 528 387 506L382 502Q377 498 377 495T382 488L387 484Q426 462 461 458Q528 449 528 411Q528 396 518 386Q508 374 491 374Q464 374 435 413Q416 438 379 462Q370 468 365 468Q357 468 357 453Q357 412 371 376Q383 348 383 333Q383 314 373 302Q362
290 345 290T317 302Q307 314 307 333Q307 348 319 376Q333 412 333 453Q333 468 325 468Q320 468 311 462Q274 438 255 413Q226 374 199 374Q182 374 172 386Q162 396 162 411Z" />
<glyph unicode="+" glyph-name="plus" horiz-adv-x="940" d="M56 244V284H456V684H500V284H900V244H500V-156H456V244H56Z" />
<glyph unicode="," glyph-name="comma" horiz-adv-x="280" d="M22 -152Q44 -141 63 -128T102 -96T133 -54T145 -5Q145 10 136 18Q128 25 107 25T73 40T60 77Q60 106 77 123T121 140Q152 140 169 114T186 59Q186 18 174 -18T145 -78T104 -122T64 -152T30 -168L22 -152Z" />
<glyph unicode="-" glyph-name="hyphen" horiz-adv-x="370" d="M56 196Q56 231 74 255T124 280H300Q315 280 321 286T328 308H346Q346 273 328 249T278 224H102Q87 224 81 218T74 196H56Z" />
<glyph unicode="." glyph-name="period" horiz-adv-x="280" d="M60 23T60 50T77 94T122 112T166 95T184 50T167 6T122 -12T78 5Z" />
<glyph unicode="/" glyph-name="slash" horiz-adv-x="440" d="M68 -198L366 730H406L108 -198H68Z" />
<glyph unicode="0" glyph-name="zero" horiz-adv-x="580" d="M152 143Q152 16 226 16Q260 16 289 33T340 83T379 152T412 238Q478 436 478 540Q478 668 404 668Q371 668 343 651T291 602T251 532T218 446Q152 248 152 143ZM72 256Q72 306 83 358T114 460T164 552T229
629T309 681T402 700Q443 700 473 680T522 623T549 538T558 428Q558 378 547 326T516 224T466 132T401 55T321 3T228 -16Q187 -16 157 4T108 61T81 146T72 256Z" />
<glyph unicode="1" glyph-name="one" horiz-adv-x="580" d="M54 0L62 32H155Q170 32 179 38T191 58L328 563Q318 556 302 549T272 538T237 527T204 516L197 536Q222 544 241 550T288 569T337 597T382 634T421 684H452L282 58Q278 44 283 38T302 32H400L392 0H54Z" />
<glyph unicode="2" glyph-name="two" horiz-adv-x="580" d="M32 26Q32 90 68 144T174 235L310 315Q374 352 422 414T470 540Q470 558 467 575T456 610T435 640T401 660T353 668Q316 668 279 647T218 595T195 540Q195 507 212 507Q218 507 228 513Q242 520 252
520Q274 520 285 507T296 474Q296 448 277 429T228 410Q201 410 179 434T156 499Q156 542 174 580T222 644T289 685T362 700Q456 700 511 651T566 522Q566 494 557 468T535 423T499 383T458 349T413 321T371 299T331 280L216 227Q168 204 142 181T116 143Q144 143
197 120Q278 87 329 87Q368 87 400 104T445 155L464 201H483Q478 172 469 144T445 86T411 34T365 -2T305 -17Q284 -17 265 -11T231 9T206 33T183 61Q163 88 148 101T114 114Q93 114 84 105T74 70Q74 57 81 52Q98 36 98 23T91 1T68 -8Q51 -8 42 1T32 26Z" />
<glyph unicode="3" glyph-name="three" horiz-adv-x="580" d="M52 120Q52 168 82 194T147 220Q174 220 187 204T200 166Q200 144 186 130T150 116Q138 116 130 121T112 126Q104 126 99 120T94 105Q94 80 106 62T137 35T176 21T216 16Q250 16 281 34T336 86Q364
126 378 181T392 278Q392 292 392 300T388 322T377 344T355 359T320 366Q298 366 281 350Q257 328 235 328Q218 328 209 335T200 354Q200 368 211 379T240 391H343Q372 391 400 412T448 466Q472 507 472 575Q472 616 447 642T371 668T277 643T233 583Q233 562 244
562Q247 562 253 565Q262 568 269 568Q304 568 304 530Q304 508 290 493T248 477T203 497T186 548Q186 594 215 629T287 682T377 700Q457 700 507 653T558 534Q558 508 547 484T519 442T481 410T439 388T398 376L397 369Q412 363 427 353T456 325T479 282T488 226Q488
172 461 123T393 42Q359 16 312 0T213 -16Q186 -16 159 -7T107 18T67 61T52 120Z" />
<glyph unicode="4" glyph-name="four" horiz-adv-x="580" d="M64 208L74 244L290 438Q345 492 398 570T462 694H544Q536 656 504 613T409 510L116 244H303L347 396Q386 423 416 460T461 535H478L398 244H556L546 208H389L349 58Q346 44 350 38T370 32H463L454
0H117L126 32H219Q247 32 254 58L294 208H64Z" />
<glyph unicode="5" glyph-name="five" horiz-adv-x="580" d="M62 114Q62 154 85 180T140 207Q168 207 184 193T200 150Q200 130 186 116T149 102Q148 102 140 102T127 103T116 99Q106 92 106 82Q106 53 137 35T216 16Q314 16 370 126Q389 164 401 217T414 312Q414
418 313 418Q280 418 246 394T195 317Q191 304 184 295T166 286Q137 286 137 310Q137 335 167 367Q194 396 202 422L252 585Q266 631 266 658Q266 670 263 683L287 700Q352 626 410 626Q503 626 559 700L574 685Q558 661 546 646T512 609T459 577T391 566Q337 566
292 609L236 423L240 420Q254 432 282 442T330 452Q414 452 461 408T508 284Q508 232 485 172T419 68Q382 29 330 7T222 -16Q150 -16 106 20T62 114Z" />
<glyph unicode="6" glyph-name="six" horiz-adv-x="580" d="M178 120Q178 74 200 45T260 16Q296 16 326 39T378 101Q422 182 422 284Q422 330 402 360T342 390Q258 390 203 265Q178 210 178 120ZM90 212Q90 284 116 374T189 540Q240 622 305 661T431 700Q480 700
515 671Q548 643 548 595Q548 554 527 528T477 502Q456 502 443 513T429 545Q429 564 438 577T456 594T475 600Q500 606 500 625Q500 642 483 655Q465 668 429 668Q382 668 334 625T254 514Q215 432 203 347L210 342Q236 382 275 404T355 426Q428 426 468 380T509
261Q509 210 487 156T428 62Q416 50 402 38T366 13T314 -8T252 -16Q181 -16 136 41T90 212Z" />
<glyph unicode="7" glyph-name="seven" horiz-adv-x="580" d="M144 54Q144 82 161 118T210 197T264 266T320 330L508 538L504 542Q486 530 464 530T422 537T391 553T362 576Q348 588 340 594T318 606T291 612Q260 612 239 589T191 515L170 474H151L219 702H238Q231
682 234 663T251 644Q276 667 300 679T354 692Q398 692 442 633Q461 607 477 594T514 580Q536 580 545 588T554 606Q554 619 542 625Q528 635 528 651Q528 666 536 673T555 681Q592 681 592 633Q592 614 580 591T554 551T512 501Q404 376 365 324T302 214Q284 170
278 136T272 62Q272 25 255 4T208 -17Q178 -17 161 1T144 54Z" />
<glyph unicode="8" glyph-name="eight" horiz-adv-x="580" d="M254 526Q254 496 262 478T290 443L381 363Q444 372 484 419T524 522Q524 592 489 630T386 668Q371 668 355 664T320 650T288 624T264 583T254 526ZM68 161Q68 212 93 254T154 318Q179 334 198 341T251
354Q224 372 204 411T184 497Q184 576 235 635Q264 668 307 684T390 700Q476 700 527 659T578 544Q578 502 561 462T513 398Q490 380 459 365T404 347Q446 311 466 275T486 192Q486 100 420 41Q356 -16 248 -16Q217 -16 186 -5T129 27T85 83T68 161ZM112 162Q112
93 149 55T260 16Q324 16 369 53T414 142Q414 215 376 248L271 336Q248 331 235 327T202 313T166 287Q143 264 128 232T112 162Z" />
<glyph unicode="9" glyph-name="nine" horiz-adv-x="580" d="M214 400Q214 354 234 324T294 294Q378 294 433 419Q458 474 458 564Q458 610 436 639T376 668Q340 668 310 645T258 583Q214 502 214 400ZM88 89Q88 130 109 156T159 182Q180 182 193 171T207 139Q207
120 198 107T180 90T161 84Q136 78 136 59Q136 42 153 29Q171 16 207 16Q254 16 302 59T382 170Q421 252 433 337L426 342Q400 302 361 280T281 258Q208 258 168 304T127 423Q127 474 149 528T208 622Q220 634 234 646T270 671T322 692T384 700Q455 700 500 643T546
472Q546 400 520 310T447 144Q396 62 331 23T205 -16Q156 -16 121 13Q88 41 88 89Z" />
<glyph unicode=":" glyph-name="colon" horiz-adv-x="280" d="M60 23T60 50T77 94T122 112T166 95T184 50T167 6T122 -12T78 5ZM152 367T152 394T169 438T214 456T258 439T276 394T259 350T214 332T170 349Z" />
<glyph unicode="&lt;" glyph-name="less" horiz-adv-x="940" d="M84 250V278L840 684L860 648L146 264L860 -120L840 -156L84 250Z" />
<glyph unicode="=" glyph-name="equal" horiz-adv-x="940" d="M56 338V378H900V338H56ZM56 148V188H900V148H56Z" />
<glyph unicode="&gt;" glyph-name="greater" horiz-adv-x="940" d="M80 -120L794 264L80 648L100 684L856 278V250L100 -156L80 -120Z" />
<glyph unicode="?" glyph-name="question" horiz-adv-x="436" d="M112 23T112 50T129 94T174 112T218 95T236 50T219 6T174 -12T130 5ZM136 242Q136 278 159 310T218 364L342 438Q420 480 420 544Q420 597 395 630T324 664Q293 664 268 658T229 643T204 622T190
600T186 581Q186 562 199 556Q214 550 220 544Q230 533 230 515Q230 502 220 490T191 478Q168 478 156 492Q138 510 138 541Q138 582 169 618T245 674T333 694Q411 694 451 649T492 534Q492 490 461 451T382 388L249 324Q216 306 197 283T178 236Q178 210 193 197T230
184Q271 184 290 207T310 262Q310 280 300 291L312 300Q330 282 330 254Q330 212 300 183T226 154Q188 154 162 178T136 242Z" />
<glyph unicode="@" glyph-name="at" horiz-adv-x="820" d="M96 355Q96 456 145 542T280 679T468 730Q550 730 616 702T725 626T791 514T814 377Q814 346 806 313T779 248T735 189T671 147T586 131Q548 131 522 151T491 206L486 207Q479 196 469 185T443 161T408
140T366 131Q321 131 288 163T254 255Q254 318 271 380T321 481Q364 532 409 555T497 579Q523 579 543 560T568 524H573L584 567H656L572 257Q561 208 571 182T602 155Q630 155 653 163T692 186T722 220T743 262T756 308T764 354T766 397Q766 540 683 621T459 702Q373
702 301 654T186 522T144 335Q144 184 230 97T468 10Q556 10 644 68L660 45Q573 -18 458 -18Q346 -18 264 29T139 160T96 355ZM322 223Q322 192 337 174T370 155Q420 155 461 208T522 335L545 420Q551 440 550 463T543 507T525 541T497 555Q457 555 426 528T364
435Q346 396 334 337T322 223Z" />
<glyph unicode="A" glyph-name="A" horiz-adv-x="728" d="M288 280H472V549L288 280ZM-44 0L-36 32H1Q42 32 74 53T125 104L536 712H560V75Q562 50 574 41T608 32H664L656 0H360L368 32H430Q450 32 461 41T472 78V244H263L195 144Q161 96 161 66Q161 32 201 32H256L248
0H-44Z" />
<glyph unicode="B" glyph-name="B" horiz-adv-x="690" d="M199 59Q192 32 218 32H381Q410 32 435 43T479 72T511 114T531 164T538 215Q538 282 508 322T419 362H281L199 59ZM-10 0L-2 32H74Q100 32 108 59L269 653Q278 680 250 680H174L182 712H530Q576 712 615
696T680 644T706 559Q706 524 691 495T653 446T600 411T541 388T485 376L484 374Q550 371 597 329T644 220Q644 180 627 144T581 83T516 38T440 10T364 0H-10ZM290 394H424Q466 394 500 405T554 433T587 474T605 519T610 561Q610 680 499 680H394Q367 680 360 653L290
394Z" />
<glyph unicode="C" glyph-name="C" horiz-adv-x="670" d="M92 252Q92 320 113 391T172 522T257 629T361 703T474 730Q539 730 585 684L603 666Q613 656 618 653T632 649Q645 649 655 664T670 693T677 722H700L636 416H613Q614 436 614 479Q614 514 605 564T571
647Q533 698 470 698Q410 698 362 662T266 536Q233 474 211 383T188 196Q188 148 196 114T217 61T249 31T284 17T321 14Q377 14 430 47T522 131T581 242L612 231Q599 192 581 157T534 90T473 34T397 -4T304 -18Q274 -18 245 -9T188 22T139 73T105 150T92 252Z"
/>
<glyph unicode="D" glyph-name="D" horiz-adv-x="750" d="M-10 0L-2 32H74Q100 32 108 59L269 653Q278 680 250 680H174L183 712H504Q608 712 667 640T726 453Q726 374 697 293T616 148Q497 0 334 0H-10ZM199 59Q192 32 218 32H344Q474 32 557 180Q590 238 610
323T630 500Q630 538 623 568T599 625T553 665T482 680H394Q367 680 360 653L199 59Z" />
<glyph unicode="E" glyph-name="E" horiz-adv-x="700" d="M-10 0L-2 32H74Q100 32 108 59L269 653Q278 680 250 680H174L182 712H734L688 484H663Q666 505 666 532Q666 575 659 604T637 650T603 673T558 680H394Q367 680 360 653L288 386H396Q414 386 429 391T454
403T474 424T489 447T501 475T509 501T517 528H542L454 200H429Q439 244 439 275Q439 310 426 330T379 350H278L199 59Q192 32 218 32H404Q430 32 465 45T528 84Q556 112 582 158T622 236L634 268H658L574 0H-10Z" />
<glyph unicode="F" glyph-name="F" horiz-adv-x="680" d="M-10 0L-2 32H74Q100 32 108 59L269 653Q278 680 250 680H174L182 712H734L688 484H663Q666 505 666 532Q666 575 659 604T637 650T603 673T558 680H394Q367 680 360 653L288 386H395Q412 386 427 391T453
403T473 424T488 447T500 475T509 501T516 528H541L453 200H428Q438 244 438 275Q438 310 425 330T378 350H278L199 59Q192 32 218 32H330L322 0H-10Z" />
<glyph unicode="G" glyph-name="G" horiz-adv-x="740" d="M92 252Q92 310 107 369T148 480T211 578T289 658T379 711T474 730Q553 730 614 676Q632 660 640 655T657 649Q688 649 701 722H724L660 416H637Q638 435 638 479Q638 597 595 647Q572 674 538 686T470
698Q410 698 362 662T266 536Q233 474 211 383T188 196Q188 148 197 112T218 58T248 30T281 17T314 14Q352 14 388 34T450 85T495 152T521 224L532 277Q533 281 533 288Q533 304 512 304H412L420 336H730L722 304H658Q630 304 623 277L562 -14H537V56Q537 97 522
97Q508 97 485 70Q402 -18 304 -18Q214 -18 153 56T92 252Z" />
<glyph unicode="H" glyph-name="H" horiz-adv-x="800" d="M-10 0L-2 32H74Q100 32 108 59L269 653Q276 680 250 680H174L182 712H478L470 680H394Q368 680 360 653L287 386H596L669 653Q676 680 650 680H574L582 712H878L870 680H794Q768 680 760 653L599 59Q592
32 618 32H694L686 0H390L398 32H474Q500 32 508 59L587 350H278L199 59Q192 32 218 32H294L286 0H-10Z" />
<glyph unicode="I" glyph-name="I" horiz-adv-x="400" d="M-10 0L-2 32H74Q100 32 108 59L269 653Q278 680 250 680H174L182 712H478L470 680H394Q367 680 360 653L199 59Q192 32 218 32H294L286 0H-10Z" />
<glyph unicode="J" glyph-name="J" horiz-adv-x="540" d="M14 110Q14 158 40 187T104 216Q130 216 148 200T166 159Q166 129 149 110T100 91Q90 91 85 85T80 68Q80 42 99 28T156 14Q205 14 241 50T292 139L431 653Q433 661 433 665Q433 680 412 680H300L308 712H640L632
680H556Q529 680 522 653L395 185Q370 92 300 37T148 -18Q86 -18 50 18T14 110Z" />
<glyph unicode="K" glyph-name="K" horiz-adv-x="756" d="M-10 0L-2 32H74Q100 32 108 59L269 653Q278 680 250 680H174L182 712H478L470 680H394Q367 680 360 653L280 356L578 580Q611 605 625 620T640 654Q640 680 586 680H562L570 712H844L836 680Q804 680
771 668T691 622L448 442L570 76Q580 51 594 42T640 32H682L674 0H382L390 32H442Q460 32 471 43T474 78L375 387L267 307L199 59Q192 32 218 32H294L286 0H-10Z" />
<glyph unicode="L" glyph-name="L" horiz-adv-x="680" d="M-10 0L-2 32H74Q100 32 108 59L269 653Q278 680 250 680H174L183 712H478L470 680H394Q367 680 360 653L199 59Q192 32 218 32H404Q430 32 465 45T528 84Q556 112 582 158T622 236L634 268H658L574 0H-10Z" />
<glyph unicode="M" glyph-name="M" horiz-adv-x="894" d="M-10 0L-2 32H46Q78 32 102 58T137 126L280 653Q288 680 261 680H174L182 712H436V157L740 712H972L964 680H888Q861 680 854 653L693 59Q686 32 714 32H790L782 0H484L492 32H568Q594 32 602 59L770 680H755L373
-12H348V680H328L176 126Q170 104 170 84Q170 32 220 32H268L260 0H-10Z" />
<glyph unicode="N" glyph-name="N" horiz-adv-x="790" d="M-10 0L-2 32H46Q78 32 102 59T137 126L280 653Q284 667 279 673T261 680H174L182 712H364L573 129L698 586Q705 610 705 629Q705 680 654 680H606L614 712H884L876 680H828Q800 680 774 655T737 586L573
-18H533L312 603H307L176 126Q170 104 170 83Q170 32 220 32H268L260 0H-10Z" />
<glyph unicode="O" glyph-name="O" horiz-adv-x="710" d="M188 192Q188 104 220 59T312 14Q348 14 382 29T440 68T486 125T521 187T546 248Q590 372 590 520Q590 608 558 653T466 698Q430 698 396 683T338 644T292 587T257 525T232 464Q188 340 188 192ZM92 248Q92
326 114 401T174 534T260 637T364 706T474 730Q538 730 587 693T661 595T686 462Q686 384 664 309T604 176T518 74T414 6T304 -18Q240 -18 191 19T117 116T92 248Z" />
<glyph unicode="P" glyph-name="P" horiz-adv-x="654" d="M-10 0L-2 32H74Q100 32 108 59L269 653Q274 666 270 673T250 680H174L183 712H524Q598 712 644 671T690 554Q690 510 669 469T611 397T517 347T394 328H272L199 59Q196 43 200 38T218 32H330L322 0H-10ZM281
360H415Q454 360 491 379T552 432Q572 460 583 497T594 572Q594 626 568 653T502 680H394Q367 680 360 653L281 360Z" />
<glyph unicode="Q" glyph-name="Q" horiz-adv-x="710" d="M188 192Q188 80 240 38H244Q231 56 231 82Q231 135 257 159T322 183T383 146T411 45Q496 106 543 235T590 520Q590 608 558 653T466 698T353 656T265 543T209 381T188 192ZM92 248Q92 326 114 401T174
534T260 637T364 706T474 730Q538 730 587 693T661 595T686 460Q686 390 668 323T622 205T557 112T483 44T412 5V-39Q412 -54 412 -62T415 -85T422 -109T435 -125T457 -132Q514 -132 548 -10L572 -17Q562 -58 548 -88T520 -136T488 -165T455 -180T424 -184Q380
-184 352 -161T324 -91Q324 -73 331 -40L337 -15Q322 -18 304 -18Q240 -18 191 19T117 116T92 248ZM259 82Q259 48 273 31T311 14Q324 14 344 18L352 55Q355 67 355 81T354 105T348 128T334 148T308 155Q285 155 272 137T259 82Z" />
<glyph unicode="R" glyph-name="R" horiz-adv-x="720" d="M-10 0L-2 32H74Q100 32 108 59L269 653Q272 668 268 674T250 680H174L182 712H493Q578 712 625 671T672 550Q672 486 614 435T480 369L479 365Q570 321 570 220Q570 196 559 143T548 72Q548 58 555 49T576
40Q596 40 612 52T639 86T657 124T669 162L694 155Q676 94 661 66Q620 -12 546 -12Q506 -12 480 9T454 81Q454 118 472 187T490 277Q490 316 469 336T414 356H279L199 59Q196 44 200 38T218 32H318L310 0H-10ZM288 388H410Q486 388 531 437T576 574Q576 627 550
653T474 680H394Q367 680 360 653L288 388Z" />
<glyph unicode="S" glyph-name="S" horiz-adv-x="620" d="M34 -10L114 306H137Q124 233 146 165T215 55T319 14Q404 14 447 49T491 152Q491 192 471 217T410 268L294 339Q232 376 205 415T177 520Q177 574 193 614T240 680T309 717T396 730Q432 730 467 711T525
672Q542 656 554 656Q570 656 584 678T605 722H628L570 462H547Q550 510 531 564T473 658T387 698Q348 698 317 686T268 655T241 613T231 565Q231 544 238 526T253 496T278 471T305 452T333 435L427 380Q454 364 471 352T506 323T533 289T549 249T555 198Q555 98
491 40T311 -18Q278 -18 246 -9T191 14T157 37T139 53Q119 73 109 73Q98 73 86 55T68 22T57 -10H34Z" />
<glyph unicode="T" glyph-name="T" horiz-adv-x="690" d="M106 0L114 32H214Q240 32 247 59L408 653Q416 680 390 680H357Q323 680 293 663T242 627Q213 599 188 553T152 477T141 444H116L196 712H744L681 444H656Q668 494 668 548Q668 580 661 604T644 642T620
665T594 677T568 680H535Q504 680 499 653L338 59Q335 45 339 39T356 32H456L448 0H106Z" />
<glyph unicode="U" glyph-name="U" horiz-adv-x="784" d="M130 176Q130 200 139 238L251 653Q254 667 250 673T232 680H156L164 712H460L452 680H376Q349 680 342 653L223 211Q214 173 214 154Q214 88 257 51T369 14Q416 14 455 30T519 73T561 131T588 198L695
588Q701 612 701 630Q701 651 690 665T650 680H602L610 712H880L872 680H824Q794 680 769 654T733 586L629 208Q616 158 596 120T545 49T468 -1T361 -18Q303 -18 258 -3T186 39T144 101T130 176Z" />
<glyph unicode="V" glyph-name="V" horiz-adv-x="752" d="M140 680L148 712H452L444 680H374Q351 680 344 668T336 633V139L596 536Q638 600 638 638Q638 656 627 668T594 680H550L558 712H854L846 680H807Q770 680 737 658T687 607L273 -18H248V636Q245 662 234
671T200 680H140Z" />
<glyph unicode="W" glyph-name="W" horiz-adv-x="1078" d="M140 680L148 712H444L436 680H368Q346 680 339 669T332 633V145L576 536Q607 583 607 636Q607 661 595 670T560 680H508L516 712H812L804 680H747Q722 680 709 663T695 617V156L933 531Q971 590 971
636Q971 651 959 665T931 680H876L884 712H1180L1172 680H1128Q1070 680 1025 605L632 -18H607V517L269 -18H244V636Q241 662 230 671T197 680H140Z" />
<glyph unicode="X" glyph-name="X" horiz-adv-x="840" d="M10 0L19 32H62Q104 32 136 52T201 108L418 345L289 630Q282 646 278 652T266 666T248 677T220 680H152L160 712H472L464 680H419Q403 680 390 665T386 630L483 417L634 582Q654 604 654 638Q654 680 603
680H566L574 712H886L878 680H842Q770 680 722 628L499 381L642 68Q652 46 664 39T699 32H760L752 0H432L440 32H504Q526 32 537 45T538 80L434 309L281 140Q265 122 259 108T253 74Q253 32 305 32H339L330 0H10Z" />
<glyph unicode="Y" glyph-name="Y" horiz-adv-x="720" d="M106 0L114 32H214Q240 32 247 58L317 318L238 636Q230 661 219 670T188 680H114L122 712H438L430 680H371Q346 680 334 665T329 633L395 355L567 553Q582 571 589 579T607 607T617 641Q617 680 569 680H526L534
712H830L822 680H775Q718 680 656 607L411 329L338 58Q330 32 356 32H456L448 0H106Z" />
<glyph unicode="Z" glyph-name="Z" horiz-adv-x="680" d="M36 0L44 31L552 680H372Q328 680 292 662T216 602Q190 576 172 545T147 498T141 480H116L200 712H672L664 680L158 32H380Q452 32 506 79Q537 106 565 153T608 234L621 268H646L560 0H36Z" />
<glyph unicode="[" glyph-name="bracketleft" horiz-adv-x="380" d="M24 -198L272 712H482L474 682H354Q342 680 337 677T328 662L111 -136Q108 -148 111 -157T125 -168H242L234 -198H24Z" />
<glyph unicode="\" glyph-name="backslash" horiz-adv-x="440" d="M72 730H112L410 -198H370L72 730Z" />
<glyph unicode="]" glyph-name="bracketright" horiz-adv-x="380" d="M-90 -198L-82 -168H38Q50 -166 55 -163T64 -148L281 650Q284 662 281 671T267 682H150L158 712H368L120 -198H-90Z" />
<glyph unicode="^" glyph-name="asciicircum" horiz-adv-x="580" d="M88 336L316 700L544 336H496L316 622L136 336H88Z" />
<glyph unicode="_" glyph-name="underscore" horiz-adv-x="520" d="M-41 -158L-31 -118H489L479 -158H-41Z" />
<glyph unicode="`" glyph-name="grave" horiz-adv-x="440" d="M214 640Q214 652 222 664T250 676Q266 676 274 667T290 637L330 518L313 508L228 605Q214 620 214 640Z" />
<glyph unicode="a" glyph-name="a" horiz-adv-x="536" d="M42 125Q42 186 60 243T101 335Q136 390 182 423T277 456Q308 456 333 435T369 368L373 366L395 444H461L376 129Q362 73 362 49Q362 22 380 22Q408 22 437 66T489 182L509 176Q498 142 484 112T451 52T409
5T362 -12Q304 -12 304 90L305 117L302 119Q294 100 280 80T247 38T203 2T154 -12Q101 -12 72 25T42 125ZM114 85Q114 56 125 34T160 12Q196 12 231 49T294 150Q314 196 329 250T344 340Q344 384 326 408T277 432Q260 432 244 421T214 393T190 358T170 320Q144
264 129 201T114 85Z" />
<glyph unicode="b" glyph-name="b" horiz-adv-x="480" d="M138 106Q138 94 138 85T142 61T152 37T171 20T202 12T237 22T268 50T292 83T313 120Q374 235 374 349Q374 378 363 405T330 432Q296 432 260 399T194 306Q138 192 138 106ZM68 136Q68 164 74 185L206
666Q210 678 206 683T191 688H102L109 712H286L188 353L193 349Q220 396 258 426T338 456Q365 456 386 443T420 409T439 363T446 310Q446 248 412 172T335 52Q304 20 269 4T188 -12Q139 -12 104 28T68 136Z" />
<glyph unicode="c" glyph-name="c" horiz-adv-x="424" d="M52 158Q52 218 74 277T140 381Q175 418 210 437T290 456Q308 456 324 451T354 435T377 404T386 356Q386 326 369 306T329 286Q310 286 300 298T290 324Q290 352 322 376Q333 385 333 402Q333 412 322
422T286 432Q208 432 150 258Q139 226 132 176T124 98Q124 54 144 33T191 12T244 25T286 55T316 95T337 131T347 155L368 148Q344 80 295 34T186 -12T89 37T52 158Z" />
<glyph unicode="d" glyph-name="d" horiz-adv-x="530" d="M114 85Q114 56 125 34T160 12Q196 12 231 49T294 150Q314 196 329 250T344 340Q344 384 326 408T277 432Q260 432 244 421T214 393T190 358T170 320Q144 264 129 201T114 85ZM42 125Q42 185 64 243T113
343Q146 396 192 426T283 456Q313 456 337 433T369 368L373 366L454 666Q458 688 438 688H350L357 712H534L376 129Q362 73 362 49Q362 22 380 22Q408 22 437 67T489 182L509 176Q442 -12 362 -12Q304 -12 304 90L305 117L302 119Q294 100 280 80T247 38T203 2T154
-12Q101 -12 72 25T42 125Z" />
<glyph unicode="e" glyph-name="e" horiz-adv-x="410" d="M52 158Q52 218 74 277T140 381Q212 456 290 456Q330 456 355 436T381 372Q381 294 280 247Q228 222 138 215Q124 159 124 98Q124 54 144 33T191 12T244 25T286 55T316 95T337 131T347 155L368 148Q344
80 295 34T186 -12T89 37T52 158ZM144 240Q217 245 261 265Q292 279 312 309T333 378Q333 406 322 419T291 432Q250 432 215 395T164 313Q152 279 144 240Z" />
<glyph unicode="f" glyph-name="f" horiz-adv-x="320" d="M-42 -238L138 416H35L41 444H145L157 483Q164 506 179 541T206 596Q280 720 383 720Q418 720 441 699T464 648Q464 621 449 604T413 586Q398 586 389 595T380 619Q380 639 396 651Q412 659 412 673Q412
684 405 690T384 696Q366 696 351 692T319 676T288 644T259 589T231 506L213 444H325L319 416H206L26 -238H-42Z" />
<glyph unicode="g" glyph-name="g" horiz-adv-x="480" d="M114 85Q114 56 125 34T160 12Q196 12 231 49T294 150Q314 196 329 250T344 340Q344 384 326 408T277 432Q260 432 244 421T214 393T190 358T170 320Q144 264 129 201T114 85ZM-17 -150Q-17 -122 -1 -106T37
-90Q56 -90 66 -102T77 -130Q77 -155 58 -170Q49 -178 49 -192Q49 -224 92 -224Q126 -224 151 -212T201 -167Q242 -112 268 -16Q303 106 305 117L302 119Q294 100 280 80T247 38T203 2T154 -12Q101 -12 72 25T42 125Q42 185 64 243T113 343Q146 396 192 426T283
456Q313 456 337 433T369 368L373 366L395 444H461L338 -7Q325 -54 297 -106T233 -192Q202 -221 167 -234T100 -248Q47 -248 15 -222T-17 -150Z" />
<glyph unicode="h" glyph-name="h" horiz-adv-x="512" d="M24 0L206 666Q210 678 206 683T190 688H102L109 712H286L154 233L158 230Q162 236 175 261T197 303T222 344T253 387T286 421T323 447T362 456Q392 456 409 432T427 360Q427 338 421 307T407 258L343
109Q327 74 327 50Q327 36 332 27T350 18Q368 18 387 35T422 81T448 133T468 182L488 176Q470 125 450 85T400 17T339 -12Q312 -12 294 12T275 84Q275 106 281 136T295 186L359 335Q375 370 375 394Q375 426 353 426Q292 426 226 313Q186 246 155 179T110 66L90
0H24Z" />
<glyph unicode="i" glyph-name="i" horiz-adv-x="334" d="M36 268Q64 348 102 402T186 456Q212 456 230 431T249 360Q249 338 243 307T229 258L165 109Q149 74 149 50Q149 36 154 27T172 18Q190 18 209 35T244 81T270 133T290 182L310 176Q292 125 272 85T222
17T161 -12Q134 -12 116 12T97 84Q97 106 103 136T117 186L181 335Q197 370 197 394Q197 426 175 426Q156 426 137 409T102 363T76 310T56 262L36 268ZM472 616T472 638T487 675T524 690T561 675T576 638T561 601T524 586T487 601Z" />
<glyph unicode="j" glyph-name="j" horiz-adv-x="326" d="M-97 -163Q-97 -135 -79 -115T-37 -95Q-19 -95 -9 -105T1 -133Q1 -159 -22 -173Q-38 -183 -38 -196Q-38 -224 -7 -224Q22 -224 47 -202T87 -127Q90 -115 99 -76T112 -21L204 318Q204 318 209 336Q214 354
216 367T218 392T213 413T196 422Q174 422 150 394T108 330T76 254L56 260Q64 286 75 310T101 362T133 410T172 443T216 456Q235 456 248 448T268 428T277 405T280 382Q280 353 269 306L173 -46Q162 -84 144 -119T102 -184T48 -230T-13 -248Q-43 -248 -70 -226T-97
-163ZM240 616T240 638T255 675T292 690T329 675T344 638T329 601T292 586T255 601Z" />
<glyph unicode="k" glyph-name="k" horiz-adv-x="490" d="M24 0L206 666Q210 678 206 683T190 688H102L109 712H286L160 250H223Q269 250 309 379Q322 422 345 439T394 456Q408 456 421 449T440 434Q456 412 456 384T442 339T406 322Q392 322 381 331T370 356Q370
370 379 383Q386 394 386 400Q386 416 367 416Q353 416 345 406T331 377Q318 334 298 292T259 243L258 238Q284 236 304 216T324 162Q324 138 314 102T304 53Q304 42 309 33T325 23T350 34Q356 39 362 45T374 60T385 76T395 95T404 113T413 132T420 149T426 167T432
182L452 176Q387 -12 308 -12Q278 -12 257 7T236 68Q236 94 248 130T260 181Q260 204 251 215T214 226H154L90 0H24Z" />
<glyph unicode="l" glyph-name="l" horiz-adv-x="290" d="M54 90Q54 110 64 150L206 666Q210 678 206 683T190 688H102L109 712H284L128 138Q112 74 112 49Q112 22 131 22T171 47T208 106T239 182L259 176Q250 150 242 131T219 83T190 35T155 2T112 -12Q54 -12 54 90Z" />
<glyph unicode="m" glyph-name="m" horiz-adv-x="806" d="M36 268Q102 456 182 456Q241 456 241 353Q241 336 232 294T214 233L218 230Q222 236 231 255T247 286T265 318T286 352T308 383T331 412T353 435T376 451T399 456Q476 456 476 361Q476 325 449 233L452
230Q456 236 469 261T491 303T516 344T547 387T580 421T617 447T656 456Q686 456 703 432T721 360Q721 338 715 307T701 258L637 109Q621 74 621 50Q621 36 626 27T644 18Q662 18 681 35T716 81T742 133T762 182L782 176Q764 125 744 85T694 17T633 -12Q606 -12
588 12T569 84Q569 106 575 136T589 186L653 335Q669 370 669 394Q669 426 647 426Q586 426 520 313Q480 246 449 179T404 66L384 0H318L401 309Q402 313 405 325T411 345T416 366T418 387Q418 426 386 426Q360 426 312 354T225 199T170 66L150 0H84L168 309Q183
369 183 394Q183 422 164 422Q114 422 56 262L36 268Z" />
<glyph unicode="n" glyph-name="n" horiz-adv-x="572" d="M36 268Q102 456 183 456Q241 456 241 354Q241 334 232 293T215 233L218 230Q222 236 235 261T257 303T282 344T313 387T346 421T383 447T422 456Q452 456 469 432T487 360Q487 338 481 307T467 258L403
109Q387 74 387 50Q387 36 392 27T410 18Q428 18 447 35T482 81T508 133T528 182L548 176Q530 125 510 85T460 17T399 -12Q372 -12 354 12T335 84Q335 106 341 136T355 186L419 335Q435 370 435 394Q435 426 413 426Q352 426 286 313Q246 246 215 179T170 66L150
0H84L168 310Q183 370 183 395Q183 422 164 422Q144 422 123 397T86 338T56 262L36 268Z" />
<glyph unicode="o" glyph-name="o" horiz-adv-x="462" d="M124 104Q124 63 141 38T190 12Q212 12 230 22T262 51T286 87T307 130Q328 178 341 235T354 340Q354 381 338 406T290 432Q268 432 250 422T217 394T192 357T171 314Q150 266 137 209T124 104ZM52 164Q52
216 72 269T124 363T201 430T294 456Q318 456 341 445T384 413T414 358T426 280Q426 228 407 175T355 81T278 14T186 -12Q133 -12 93 34T52 164Z" />
<glyph unicode="p" glyph-name="p" horiz-adv-x="540" d="M200 104Q200 60 218 36T267 12Q284 12 300 23T330 51T354 86T374 124Q400 180 415 243T430 359Q430 388 419 410T384 432Q348 432 313 395T250 294Q230 248 215 194T200 104ZM-76 -238L-68 -210H6Q18
-210 24 -205T33 -188L170 321Q182 369 182 395Q182 410 178 416T162 422Q144 422 123 396T85 336T55 262L35 268Q101 456 183 456Q200 456 211 447T229 423T237 393T240 361L239 327L242 325Q250 344 264 364T297 406T341 442T390 456Q443 456 472 419T502 319Q502
258 484 201T443 109Q408 54 362 21T267 -12Q236 -12 211 9T175 76L171 78L101 -188Q98 -200 101 -205T116 -210H238L230 -238H-76Z" />
<glyph unicode="q" glyph-name="q" horiz-adv-x="480" d="M114 85Q114 56 125 34T160 12Q196 12 231 49T294 150Q314 196 329 250T344 340Q344 384 326 408T277 432Q260 432 244 421T214 393T190 358T170 320Q144 264 129 201T114 85ZM42 125Q42 185 64 243T113
343Q146 396 192 426T283 456Q314 456 339 431T373 349H378L444 444H462L290 -188Q287 -200 291 -205T307 -210H381L373 -238H66L74 -210H195Q207 -210 213 -205T222 -188Q303 106 305 117L302 119Q292 96 278 75T245 34T203 1T154 -12Q101 -12 72 25T42 125Z"
/>
<glyph unicode="r" glyph-name="r" horiz-adv-x="430" d="M36 268Q102 456 183 456Q241 456 241 354Q241 326 232 296L239 294Q254 326 267 350T299 400T338 441T379 456Q412 456 429 436T446 387Q446 361 429 341T384 320Q367 320 356 332T345 362T357 394Q367
404 367 409Q367 412 367 414T363 419T354 421Q331 421 292 353T221 205T169 62L150 0H84L168 310Q183 370 183 395Q183 422 164 422Q136 422 107 375T56 262L36 268Z" />
<glyph unicode="s" glyph-name="s" horiz-adv-x="420" d="M24 106Q24 130 38 151T79 172Q94 172 105 162T116 133Q116 108 95 101Q82 98 76 91T69 67Q69 52 79 40T107 23T140 15T171 12Q224 12 252 36T280 96Q280 140 248 163L165 226Q118 256 118 317Q118 350
132 377T168 421T217 447T272 456Q302 456 328 444T368 414T390 377T398 344Q398 321 385 304T346 287Q330 287 318 297T306 324Q306 344 319 354Q323 358 333 364Q345 371 345 380Q345 403 320 417T266 432Q226 432 196 409T166 345Q166 328 170 317T179 301T195
289L288 219Q302 208 311 199T328 173T336 136Q336 109 325 83T292 36T238 1T165 -12Q98 -12 61 23T24 106Z" />
<glyph unicode="t" glyph-name="t" horiz-adv-x="320" d="M52 72Q52 110 63 154L135 416H66L73 444H143L208 684H274L209 444H322L315 416H201L118 108Q110 82 110 52Q110 42 117 33T139 23Q152 23 165 31Q188 47 204 85T237 182L257 176Q250 146 242 122T223
71T199 28T167 -1T126 -12Q93 -12 73 10T52 72Z" />
<glyph unicode="u" glyph-name="u" horiz-adv-x="572" d="M36 268Q54 319 74 359T124 427T185 456Q212 456 230 432T249 360Q249 338 243 308T229 258L165 109Q149 74 149 50Q149 18 171 18Q232 18 298 131Q338 198 369 265T414 378L434 444H500L416 134Q401 74
401 49Q401 22 420 22Q440 22 461 47T498 106T528 182L548 176Q482 -12 401 -12Q343 -12 343 90Q343 110 352 151T369 211L366 214Q362 208 349 183T327 141T302 100T271 57T238 23T201 -3T162 -12Q132 -12 115 12T97 84Q97 106 103 137T117 186L181 335Q197 370
197 394Q197 408 192 417T174 426Q156 426 137 409T102 363T76 311T56 262L36 268Z" />
<glyph unicode="v" glyph-name="v" horiz-adv-x="472" d="M36 268Q54 319 74 359T124 427T185 456Q212 456 230 432T249 360Q249 338 243 308T229 258L165 109Q149 74 149 50Q149 30 158 21T190 12Q228 12 264 34T327 91T375 166T406 244T416 310Q416 330 408
337T386 348Q366 352 349 367T332 406Q332 429 345 442T381 456Q406 456 423 438T446 396T452 344Q452 326 447 299T432 238T406 170T368 103T318 45T255 4T178 -12Q146 -12 122 13T97 84Q97 106 103 137T117 186L181 335Q197 370 197 394Q197 408 192 417T174
426Q156 426 137 409T102 363T76 311T56 262L36 268Z" />
<glyph unicode="w" glyph-name="w" horiz-adv-x="716" d="M36 268Q54 319 74 359T124 427T185 456Q212 456 230 432T249 360Q249 338 243 308T229 258L165 109Q149 74 149 50Q149 12 184 12Q212 12 246 43T310 122T364 224T402 324L434 444H500L409 108Q401 78
401 46Q401 32 409 22T434 12Q472 12 508 34T571 91T619 166T650 244T660 310Q660 330 652 337T630 348Q610 352 593 367T576 406Q576 429 589 442T625 456Q650 456 667 438T690 396T696 344Q696 326 691 299T676 238T650 170T612 103T562 45T499 4T422 -12Q387
-12 365 9T343 78Q343 112 352 145L346 147Q314 82 266 35T174 -12Q141 -12 119 13T97 84Q97 106 103 137T117 186L181 335Q197 370 197 394Q197 408 192 417T174 426Q156 426 137 409T102 363T76 311T56 262L36 268Z" />
<glyph unicode="x" glyph-name="x" horiz-adv-x="564" d="M25 59Q25 92 43 114Q62 138 89 138Q102 138 113 130Q127 120 127 98Q127 64 96 50Q86 45 83 42T79 28Q79 20 85 16T101 12Q148 12 185 65T244 202L269 294Q277 323 277 360Q277 392 265 412T225 432Q186
432 147 388T84 289L63 296Q74 325 90 351T128 402T177 441T233 456Q276 456 297 427T321 355L325 353Q391 456 469 456Q486 456 502 450T526 434Q544 414 544 385Q544 352 526 330Q508 306 480 306Q467 306 456 314Q442 324 442 346Q442 376 471 390Q482 395 486
400T490 416Q490 424 484 428T468 432Q444 432 422 417T382 374T350 314T325 242L300 150Q292 123 292 84Q292 52 305 32T344 12Q383 12 422 56T485 155L506 148Q494 119 478 93T441 42T393 3T336 -12Q294 -12 272 17T248 89L244 91Q178 -12 100 -12Q83 -12 67
-6T43 10Q25 30 25 59Z" />
<glyph unicode="y" glyph-name="y" horiz-adv-x="512" d="M24 -150Q24 -122 40 -106T78 -90Q98 -90 108 -102T118 -130Q118 -155 99 -170Q90 -178 90 -192Q90 -224 133 -224Q168 -224 193 -213T243 -170Q280 -124 309 -16L352 145L346 147Q314 82 266 35T174 -12Q141
-12 119 13T97 84Q97 106 103 137T117 186L181 335Q197 370 197 394Q197 408 192 417T174 426Q156 426 137 409T102 363T76 311T56 262L36 268Q54 319 74 359T124 427T185 456Q212 456 230 432T249 360Q249 338 243 308T229 258L165 109Q149 74 149 50Q149 12 184
12Q212 12 246 43T310 122T364 224T402 324L435 444H501L383 0Q372 -43 346 -95T283 -186Q252 -219 215 -233T144 -248Q90 -248 57 -222T24 -150Z" />
<glyph unicode="z" glyph-name="z" horiz-adv-x="440" d="M26 30Q26 66 42 100T84 160T138 205T197 237Q285 273 321 296T371 352Q369 355 369 356Q342 336 318 336Q303 336 290 340T269 349T251 362Q224 384 202 384Q178 384 160 375T128 348T108 317T94 286L78
293Q84 316 95 341T123 393T165 438T216 456Q261 456 301 399Q314 382 322 374T340 366Q369 366 369 384Q369 394 360 398Q344 406 344 424Q344 438 351 447T372 456Q391 456 400 443T410 408Q410 358 360 302T239 216Q138 174 109 154T73 107Q115 96 149 78Q200
52 244 52Q268 52 288 63T322 94T345 132T361 171L380 163Q372 138 365 118T345 72T317 29T280 0T233 -12Q207 -12 185 -2T150 18T123 46Q96 76 81 76Q60 76 60 60Q60 49 75 44Q92 37 92 19Q92 6 85 -3T62 -12T36 0T26 30Z" />
<glyph unicode="{" glyph-name="braceleft" horiz-adv-x="420" d="M106 -71Q106 -39 122 1T157 74T192 143T208 207Q208 237 186 247T120 258L125 276Q146 276 160 277T191 283T220 298T240 324T255 365T260 425V473Q260 529 274 572T316 645T380 695T466 730L472
706Q444 698 427 691T393 674T367 653T350 626T339 588T334 536V475Q328 308 194 268L193 266Q256 244 256 174Q256 140 240 98T205 25T170 -41T154 -99Q154 -114 160 -125T179 -145T203 -159T234 -172L215 -196Q106 -157 106 -71Z" />
<glyph unicode="|" glyph-name="bar" horiz-adv-x="284" d="M144 -198V730H188V-198H144Z" />
<glyph unicode="}" glyph-name="braceright" horiz-adv-x="420" d="M-8 -172Q20 -164 37 -157T71 -140T97 -119T114 -92T125 -54T130 -2V59Q136 226 270 266L271 268Q208 290 208 360Q208 394 224 436T259 509T294 575T310 633Q310 648 304 659T285 679T261 693T230
706L249 730Q358 691 358 605Q358 573 342 533T307 460T272 391T256 327Q256 297 278 287T344 276L339 258Q318 258 304 257T273 251T244 236T224 210T209 169T204 109V61Q204 5 190 -38T148 -111T84 -161T-2 -196L-8 -172Z" />
<glyph unicode="~" glyph-name="asciitilde" horiz-adv-x="660" d="M60 253Q60 292 90 322T174 352Q204 352 243 341T309 319T382 288Q424 269 446 260T499 241T550 232Q566 232 578 244T590 278Q590 316 548 338L560 359Q591 345 607 322T624 269Q624 230 594
200T510 170Q480 170 441 181T376 202T302 234Q210 274 178 283Q152 290 134 290Q118 290 106 278T94 244Q94 206 136 184L124 163Q93 177 77 200T60 253Z" />
<glyph unicode="&#xa0;" glyph-name="nbspace" horiz-adv-x="280" />
<glyph unicode="&#xa1;" glyph-name="exclamdown" horiz-adv-x="280" d="M142 369T142 396T159 440T204 458T248 441T266 396T249 352T204 334T160 351ZM-4 -178Q-4 -140 54 -8Q86 66 98 100L168 288H192L156 85Q144 16 137 -47Q128 -122 118 -178Q104 -248 48
-248Q22 -248 9 -230T-4 -178Z" />
<glyph unicode="&#xa2;" glyph-name="cent" horiz-adv-x="580" d="M136 158Q136 288 224 381Q258 417 291 435T365 456L398 576H422L390 456Q427 456 458 429T490 356Q490 326 473 306T433 286Q414 286 404 296T394 321Q394 346 426 370Q437 379 437 393Q437 410
423 421T383 432L268 12H275Q324 12 364 44T429 126L450 119Q439 96 424 75T386 33T334 0T270 -12H262L232 -120H208L239 -8Q192 4 164 50T136 158ZM208 98Q208 36 246 18L358 432Q347 432 331 422T298 392Q262 348 234 258Q208 174 208 98Z" />
<glyph unicode="&#xa3;" glyph-name="sterling" horiz-adv-x="720" d="M-32 41Q-32 72 -10 94T45 126T112 136Q164 136 219 121Q258 189 290 320Q232 328 200 328Q170 328 152 323T108 306L100 328Q140 356 200 356Q243 356 297 347Q387 700 574 700Q602 700 624
692T659 671T681 643T693 614T696 588Q696 552 676 531T630 510Q607 510 588 522T569 561Q569 580 581 590T606 600Q618 600 626 596T644 592Q652 592 656 595T660 609Q660 636 639 657T573 678Q548 678 526 669T488 645T458 606T435 560T417 507T403 454T392 400Q386
364 376 332Q430 322 480 322T572 344L580 322Q566 311 538 303T480 294Q432 294 368 305Q330 185 267 106Q294 96 317 87Q362 70 391 61T448 52Q487 52 519 62T574 89T613 129T640 175T656 225L676 219Q667 171 646 123T590 45Q554 12 516 -2T417 -16Q390 -16
359 -7T306 12T250 42L221 57Q142 -16 48 -16Q16 -16 -8 -2T-32 41ZM-4 43Q-4 31 1 24T16 13T33 9T52 8Q130 8 187 73Q122 102 68 102Q40 102 18 85T-4 43Z" />
<glyph unicode="&#xa4;" glyph-name="currency" horiz-adv-x="580" d="M138 420T138 342T189 213T318 162T447 213T498 342T447 472T318 524T189 472ZM80 136L147 203Q98 263 98 342Q98 420 148 482L80 550L111 581L178 514Q240 564 318 564T458 514L525 581L556
550L488 482Q538 420 538 342Q538 263 489 203L556 136L525 105L458 172Q396 122 318 122T178 172L111 105L80 136Z" />
<glyph unicode="&#xa5;" glyph-name="yen" horiz-adv-x="580" d="M64 0L73 32H149Q176 32 184 60L224 206H84L93 238H233L249 298H109L118 330H252L190 613Q187 626 185 633T175 646T156 652H93L102 684H362L353 652H312Q285 652 281 635Q278 625 282 610L335
358L503 562Q524 589 524 612Q524 620 522 628T512 644T491 652H449L458 684H690L681 652H643Q623 652 607 639T567 598L346 330H486L477 298H337L321 238H461L452 206H312L272 60Q264 32 293 32H369L360 0H64Z" />
<glyph unicode="&#xa6;" glyph-name="brokenbar" horiz-adv-x="284" d="M144 370V730H188V370H144ZM144 -168V192H188V-168H144Z" />
<glyph unicode="&#xa7;" glyph-name="section" horiz-adv-x="620" d="M72 -54Q72 -18 94 7T150 32Q166 32 180 21T194 -12Q194 -30 182 -42T155 -55Q148 -55 138 -51Q132 -48 127 -48Q124 -48 121 -50Q116 -54 116 -74Q116 -107 144 -131T216 -156Q236 -156 256
-149T294 -127T324 -86T336 -26Q336 -5 326 13T306 41T274 66L164 149Q104 196 104 260Q104 308 143 360T232 437Q212 468 212 521Q212 564 229 600T274 657T333 690T394 702Q426 702 452 690T494 658T519 615T528 570Q528 534 506 509T450 484Q434 484 420 495T406
528Q406 546 418 558T445 571Q453 571 459 569Q467 567 469 567Q475 567 478 570Q484 576 484 590Q484 623 456 647T384 672Q364 672 344 664T306 640T276 597T264 537Q264 522 268 510T281 488T297 471T320 454L436 367Q496 321 496 256Q496 208 457 156T368 79Q388
48 388 -5Q388 -48 371 -84T326 -141T267 -174T206 -186Q174 -186 148 -174T106 -142T81 -99T72 -54ZM156 290Q156 251 196 220L331 118Q346 106 358 93Q395 114 419 151T444 226Q444 265 404 296L269 398Q254 410 242 423Q205 402 181 365T156 290Z" />
<glyph unicode="&#xa8;" glyph-name="dieresis" horiz-adv-x="440" d="M374 574T374 596T389 633T426 648T463 633T478 596T463 559T426 544T389 559ZM186 574T186 596T201 633T238 648T275 633T290 596T275 559T238 544T201 559Z" />
<glyph unicode="&#xa9;" glyph-name="copyright" horiz-adv-x="820" d="M100 426T100 356T126 223T196 113T302 38T434 10T565 38T672 112T742 222T768 356T742 489T672 599T566 674T434 702T303 674T196 600T126 490ZM72 280T72 356T100 501T176 620T291 700T434
730T577 700T692 620T768 501T796 356T768 211T692 92T577 12T434 -18T291 12T176 92T100 211ZM244 338Q244 450 298 520T448 590Q488 590 530 557Q540 550 550 550Q558 550 565 561T572 584H590V420H572Q566 478 526 522T448 566Q332 566 332 338Q332 312 335
286T346 232T367 183T400 148T446 134Q478 134 502 147T541 182T562 227T574 278H598Q596 248 587 220T560 167T513 126T446 110Q398 110 358 130T294 183T257 256T244 338Z" />
<glyph unicode="&#xaa;" glyph-name="ordfeminine" horiz-adv-x="380" d="M88 362L95 386H336L329 362H88ZM160 475Q160 456 167 443T190 430Q216 430 244 471T285 563L293 594Q298 610 298 636Q298 654 288 668T255 682Q229 682 207 650T172 570T160 475ZM108
503Q108 534 118 567T147 631T193 680T254 700Q274 700 289 687T308 658H311L320 694H370L315 497Q306 467 306 453T317 439Q336 439 356 468T389 534L401 529Q385 486 359 449T305 412Q279 412 268 426T256 454Q256 464 259 471L257 472Q246 451 225 432T184 412Q148
412 128 437T108 503Z" />
<glyph unicode="&#xab;" glyph-name="guillemotleft" horiz-adv-x="440" d="M202 228Q272 284 365 382L376 372L269 228L298 84L281 74Q242 174 202 228ZM54 228Q154 302 295 438L306 428L144 228L198 28L181 18Q146 89 117 137T54 228Z" />
<glyph unicode="&#xac;" glyph-name="logicalnot" horiz-adv-x="580" d="M72 406V446H556V406V240H512V406H72Z" />
<glyph unicode="&#xad;" glyph-name="softhyphen" horiz-adv-x="370" d="M56 196Q56 231 74 255T124 280H300Q315 280 321 286T328 308H346Q346 273 328 249T278 224H102Q87 224 81 218T74 196H56Z" />
<glyph unicode="&#xae;" glyph-name="registered" horiz-adv-x="820" d="M224 130V154H266Q278 154 283 159T288 176V540Q288 552 283 557T266 562H224V586H452Q515 586 556 558T598 476Q598 454 589 436T568 406T540 387T512 375T490 370V366Q504 363 516 358T542
340T567 305T581 251Q582 244 583 231T584 211T586 194T590 177T596 166T605 157T618 154Q631 154 640 164T653 190T658 219T660 244H678Q678 229 677 216T671 183T657 151T632 128T593 118Q562 118 542 132Q505 158 505 219V273Q505 298 499 316T481 342T460 354T438
358H360V176Q360 164 365 159T382 154H426V130H224ZM360 382H437Q470 382 490 405T510 470Q510 562 436 562H382Q370 562 365 557T360 540V382ZM100 426T100 356T126 223T196 113T302 38T434 10T565 38T672 112T742 222T768 356T742 489T672 599T566 674T434 702T303
674T196 600T126 490ZM72 280T72 356T100 501T176 620T291 700T434 730T577 700T692 620T768 501T796 356T768 211T692 92T577 12T434 -18T291 12T176 92T100 211Z" />
<glyph unicode="&#xb0;" glyph-name="degree" horiz-adv-x="580" d="M266 462Q266 422 283 401T322 380Q380 380 420 444T460 594Q460 634 443 655T404 676Q346 676 306 612T266 462ZM194 462Q194 491 203 523T229 587T269 643T324 684T390 700Q434 700 461 666T488
578Q488 549 479 517T453 453T413 397T358 356T292 340Q248 340 221 374T194 462Z" />
<glyph unicode="&#xb1;" glyph-name="plusminus" horiz-adv-x="940" d="M64 338V378H464V652H508V378H908V338H508V64H464V338H64ZM64 0H900V-40H64V0Z" />
<glyph unicode="&#xb2;" glyph-name="twosuperior" horiz-adv-x="440" d="M96 294Q96 340 121 369T193 420L277 465Q319 486 350 521T382 598Q382 632 364 655T306 678Q272 678 243 654T214 606Q214 591 222 591Q228 591 233 595Q239 599 246 599Q258 599 266
592T274 571Q274 554 262 541T231 528Q209 528 197 543T184 583Q184 630 225 666T319 702Q377 702 411 672T446 594Q446 582 443 570T435 548T422 528T407 511T388 496T369 483T348 471T328 461T309 452T292 444L224 412Q185 393 181 389Q176 385 176 377Q176 364
219 351T301 337Q322 337 342 349T372 378L384 403H395Q389 386 385 375T372 346T356 316T337 293T314 276T287 270Q268 270 252 278T225 298T204 322T184 342T163 350Q154 350 148 349T135 342T128 325Q128 318 134 310Q140 301 140 294Q140 271 119 271Q96 271
96 294Z" />
<glyph unicode="&#xb3;" glyph-name="threesuperior" horiz-adv-x="440" d="M112 368Q112 398 130 414T168 431Q204 431 204 393Q204 379 195 370T169 361Q147 361 147 351Q147 325 167 310T220 294Q270 294 301 332T332 424Q332 464 320 478T272 492Q258 492
246 483Q232 473 218 473Q208 473 202 479T196 494Q196 502 201 509T218 516H292Q326 516 352 547T378 618Q378 654 362 668T310 682Q278 682 253 668T227 632Q227 622 232 622Q235 622 241 624T249 626Q274 626 274 600Q274 584 265 573T238 562Q218 562 207 575T196
607Q196 648 232 675T314 702Q368 702 402 679T436 610Q436 586 425 566T396 534T360 515T326 506L325 502Q356 492 376 473T396 417Q396 375 369 341T302 288T219 270Q170 270 141 297T112 368Z" />
<glyph unicode="&#xb4;" glyph-name="acute" horiz-adv-x="440" d="M292 520L398 643Q421 670 446 670Q461 670 467 662T474 641Q474 616 442 595L304 508L292 520Z" />
<glyph unicode="&#xb5;" glyph-name="mu1" horiz-adv-x="572" d="M30 -182Q30 -43 82 144L166 444H232L178 244Q159 144 159 116Q159 24 208 24Q250 24 287 73T344 194L412 444H480L388 101Q381 76 381 62Q381 54 382 48T385 36T395 27T411 24Q457 24 537 176L552
167Q540 142 530 123T502 77T467 32T428 1T383 -12Q352 -12 335 9T317 62Q317 74 320 84L313 86Q254 -12 189 -12Q150 -12 127 21T104 97L97 100L79 15Q75 -4 75 -24Q75 -78 84 -114T111 -185Q128 -220 128 -241Q128 -258 119 -270T92 -282Q71 -282 57 -266T36
-228T30 -182Z" />
<glyph unicode="&#xb6;" glyph-name="paragraph" horiz-adv-x="540" d="M148 -156L295 386Q235 386 200 416T164 499Q164 535 180 572T225 641T296 692T384 712H628L618 678H550L324 -156H286L512 678H412L186 -156H148Z" />
<glyph unicode="&#xb7;" glyph-name="middot" horiz-adv-x="280" d="M132 289T132 316T149 360T194 378T238 361T256 316T239 272T194 254T150 271Z" />
<glyph unicode="&#xb8;" glyph-name="cedilla" horiz-adv-x="440" d="M56 -148Q56 -130 68 -114T98 -97Q112 -97 119 -105T126 -128Q126 -138 119 -146T102 -154Q98 -154 96 -157T93 -165Q93 -190 132 -190Q160 -190 173 -174T187 -136T173 -83Q163 -62 163 -47Q163
-30 172 -13L187 12L206 0L193 -21Q189 -28 189 -36Q189 -52 209 -72Q237 -100 237 -126Q237 -162 207 -187T130 -212Q102 -212 79 -195T56 -148Z" />
<glyph unicode="&#xb9;" glyph-name="onesuperior" horiz-adv-x="440" d="M130 280L137 304H192Q209 304 213 319L293 601Q266 586 219 576L216 597Q254 604 294 628T360 692H382L277 319Q275 311 278 308T290 304H345L338 280H130Z" />
<glyph unicode="&#xba;" glyph-name="ordmasculine" horiz-adv-x="380" d="M88 362L95 386H336L329 362H88ZM186 484Q186 428 226 428Q256 428 282 461T322 538T336 621Q336 680 294 680Q265 680 239 646T200 567T186 484ZM134 508Q134 549 155 592T216 667T299
698Q340 698 364 670T388 598Q388 558 366 515T305 441T221 410Q182 410 158 437T134 508Z" />
<glyph unicode="&#xbb;" glyph-name="guillemotright" horiz-adv-x="440" d="M72 84L179 228L150 372L167 382Q206 282 246 228Q176 172 83 74L72 84ZM142 28L304 228L250 428L267 438Q302 367 331 319T394 228Q294 154 153 18L142 28Z" />
<glyph unicode="&#xbc;" glyph-name="onequarter" horiz-adv-x="876" d="M248 0L688 702L714 684L274 -18L248 0ZM130 280L137 304H192Q209 304 213 319L293 601Q266 586 219 576L216 597Q254 604 294 628T360 692H382L277 319Q275 311 278 308T290 304H345L338
280H130ZM508 112L516 138L646 259Q685 296 711 338T743 416H815Q807 386 793 363T740 306L552 138H675L704 238Q754 269 777 321H788L740 138H840L832 112H732L713 40Q710 31 712 28T723 24H782L776 0H564L570 24H627Q644 24 648 40L668 112H508Z" />
<glyph unicode="&#xbd;" glyph-name="onehalf" horiz-adv-x="876" d="M248 0L688 702L714 684L274 -18L248 0ZM130 280L137 304H192Q209 304 213 319L293 601Q266 586 219 576L216 597Q254 604 294 628T360 692H382L277 319Q275 311 278 308T290 304H345L338 280H130ZM496
14Q496 60 521 89T593 140L677 185Q719 206 750 241T782 318Q782 352 764 375T706 398Q672 398 643 374T614 326Q614 311 622 311Q628 311 633 315Q639 319 646 319Q658 319 666 312T674 291Q674 274 662 261T631 248Q609 248 597 263T584 303Q584 350 625 386T719
422Q777 422 811 392T846 314Q846 302 843 290T835 268T822 248T807 231T788 216T769 203T748 191T728 181T709 172T692 164L624 132Q585 113 581 109Q576 105 576 97Q576 84 619 71T701 57Q722 57 742 69T772 98L784 123H795Q789 106 785 95T772 66T756 36T737
13T714 -4T687 -10Q668 -10 652 -2T625 18T604 42T584 62T563 70Q554 70 548 69T535 62T528 45Q528 38 534 30Q540 21 540 14Q540 -9 519 -9Q496 -9 496 14Z" />
<glyph unicode="&#xbe;" glyph-name="threequarters" horiz-adv-x="876" d="M248 0L688 702L714 684L274 -18L248 0ZM112 368Q112 398 130 414T168 431Q204 431 204 393Q204 379 195 370T169 361Q147 361 147 351Q147 325 167 310T220 294Q270 294 301 332T332
424Q332 464 320 478T272 492Q258 492 246 483Q232 473 218 473Q208 473 202 479T196 494Q196 502 201 509T218 516H292Q326 516 352 547T378 618Q378 654 362 668T310 682Q278 682 253 668T227 632Q227 622 232 622Q235 622 241 624T249 626Q274 626 274 600Q274
584 265 573T238 562Q218 562 207 575T196 607Q196 648 232 675T314 702Q368 702 402 679T436 610Q436 586 425 566T396 534T360 515T326 506L325 502Q356 492 376 473T396 417Q396 375 369 341T302 288T219 270Q170 270 141 297T112 368ZM508 112L516 138L646
259Q685 296 711 338T743 416H815Q807 386 793 363T740 306L552 138H675L704 238Q754 269 777 321H788L740 138H840L832 112H732L713 40Q710 31 712 28T723 24H782L776 0H564L570 24H627Q644 24 648 40L668 112H508Z" />
<glyph unicode="&#xbf;" glyph-name="questiondown" horiz-adv-x="436" d="M252 369T252 396T269 440T314 458T358 441T376 396T359 352T314 334T270 351ZM-4 -88Q-4 -44 27 -5T106 58L239 122Q272 140 291 163T310 210Q310 236 295 249T258 262Q217 262 198 239T178
184Q178 166 188 155L176 146Q158 164 158 192Q158 234 188 263T262 292Q300 292 326 268T352 204Q352 168 329 136T270 82L146 8Q68 -34 68 -98Q68 -151 93 -184T164 -218Q195 -218 220 -212T259 -197T284 -176T298 -154T302 -135Q302 -128 299 -123T294 -117T285
-112Q267 -102 263 -93T258 -65Q258 -52 268 -42T297 -32Q322 -32 336 -48T350 -95Q350 -136 319 -172T243 -228T155 -248Q77 -248 37 -203T-4 -88Z" />
<glyph unicode="&#xc0;" glyph-name="Agrave" horiz-adv-x="728" d="M288 280H472V549L288 280ZM-44 0L-36 32H1Q42 32 74 53T125 104L536 712H560V75Q562 50 574 41T608 32H664L656 0H360L368 32H430Q450 32 461 41T472 78V244H263L195 144Q161 96 161 66Q161
32 201 32H256L248 0H-44ZM444 895Q444 902 446 909T457 923T479 930Q508 930 521 893L562 771L547 762L459 859Q444 876 444 895Z" />
<glyph unicode="&#xc1;" glyph-name="Aacute" horiz-adv-x="728" d="M288 280H472V549L288 280ZM-44 0L-36 32H1Q42 32 74 53T125 104L536 712H560V75Q562 50 574 41T608 32H664L656 0H360L368 32H430Q450 32 461 41T472 78V244H263L195 144Q161 96 161 66Q161
32 201 32H256L248 0H-44ZM538 774L644 897Q667 924 692 924Q720 924 720 895Q720 868 688 849L550 762L538 774Z" />
<glyph unicode="&#xc2;" glyph-name="Acircumflex" horiz-adv-x="728" d="M288 280H472V549L288 280ZM-44 0L-36 32H1Q42 32 74 53T125 104L536 712H560V75Q562 50 574 41T608 32H664L656 0H360L368 32H430Q450 32 461 41T472 78V244H263L195 144Q161 96 161 66Q161
32 201 32H256L248 0H-44ZM396 778Q502 830 572 920H612Q636 830 712 778L698 762Q674 771 637 800T576 858Q536 830 483 801T402 762L396 778Z" />
<glyph unicode="&#xc3;" glyph-name="Atilde" horiz-adv-x="728" d="M288 280H472V549L288 280ZM-44 0L-36 32H1Q42 32 74 53T125 104L536 712H560V75Q562 50 574 41T608 32H664L656 0H360L368 32H430Q450 32 461 41T472 78V244H263L195 144Q161 96 161 66Q161
32 201 32H256L248 0H-44ZM422 810Q422 849 443 876T502 904Q534 904 587 884T664 864Q681 864 688 874T700 904H722Q722 865 701 838T642 810Q610 810 557 830T480 850Q463 850 456 840T444 810H422Z" />
<glyph unicode="&#xc4;" glyph-name="Adieresis" horiz-adv-x="728" d="M288 280H472V549L288 280ZM-44 0L-36 32H1Q42 32 74 53T125 104L536 712H560V75Q562 50 574 41T608 32H664L656 0H360L368 32H430Q450 32 461 41T472 78V244H263L195 144Q161 96 161 66Q161
32 201 32H256L248 0H-44ZM628 828T628 850T643 887T680 902T717 887T732 850T717 813T680 798T643 813ZM424 828T424 850T439 887T476 902T513 887T528 850T513 813T476 798T439 813Z" />
<glyph unicode="&#xc5;" glyph-name="Aring" horiz-adv-x="728" d="M288 280H472V549L288 280ZM-44 0L-36 32H1Q42 32 74 53T125 104L536 712H560V75Q562 50 574 41T608 32H664L656 0H360L368 32H430Q450 32 461 41T472 78V244H263L195 144Q161 96 161 66Q161
32 201 32H256L248 0H-44ZM456 812T456 852T484 920T553 948T622 920T650 852T622 783T553 754T484 783ZM480 884T480 852T501 799T553 778T605 799T626 852T605 904T553 924T501 904Z" />
<glyph unicode="&#xc6;" glyph-name="AE" horiz-adv-x="1010" d="M-44 0L-36 32H3Q68 32 124 104L514 591Q518 596 524 604T534 616T543 626T551 637T557 647T561 656T563 665Q563 680 540 680H494L502 712H1054L1008 484H983Q986 505 986 532Q986 575 979 604T957
650T923 673T878 680H714Q687 680 680 653L608 386H716Q734 386 749 391T774 403T794 424T809 447T821 475T829 501T837 528H862L774 200H749Q759 244 759 275Q759 310 746 330T699 350H598L519 59Q515 45 519 39T538 32H724Q750 32 785 45T848 84Q876 112 902
158T942 236L954 268H978L894 0H310L318 32H393Q420 32 428 59L478 245H281L200 144Q199 142 193 134T182 119T172 102T163 81T159 61Q159 48 167 40T195 32H243L235 0H-44ZM308 281H487L579 620L308 281Z" />
<glyph unicode="&#xc7;" glyph-name="Ccedilla" horiz-adv-x="670" d="M92 252Q92 320 113 391T172 522T257 629T361 703T474 730Q539 730 585 684L603 666Q611 658 614 656T622 652T632 649T644 651T654 660T661 671T667 685T671 698T674 712Q674 712 677 722H700L636
416H613Q613 425 613 446T614 479Q614 514 605 564T571 647Q533 698 470 698Q410 698 362 662T266 536Q233 474 211 383T188 196Q188 148 196 114T217 61T249 31T284 17T321 14Q377 14 430 47T522 131T581 242L612 231Q599 192 581 157T534 90T473 34T397 -4T304
-18H300L298 -21Q293 -30 293 -38Q293 -55 314 -70Q332 -84 342 -98T352 -131Q352 -177 312 -207T217 -238Q186 -238 162 -218T138 -164Q138 -144 151 -129T181 -114Q213 -114 213 -143Q213 -168 189 -176Q181 -180 181 -189Q181 -202 189 -208T221 -214Q250 -214
272 -191T295 -139Q295 -111 281 -88Q263 -59 263 -45Q263 -30 270 -15Q236 -8 205 10T148 60T107 141T92 252Z" />
<glyph unicode="&#xc8;" glyph-name="Egrave" horiz-adv-x="700" d="M-10 0L-2 32H74Q100 32 108 59L269 653Q278 680 250 680H174L182 712H734L688 484H663Q666 505 666 532Q666 575 659 604T637 650T603 673T558 680H394Q367 680 360 653L288 386H396Q414 386
429 391T454 403T474 424T489 447T501 475T509 501T517 528H542L454 200H429Q439 244 439 275Q439 310 426 330T379 350H278L199 59Q192 32 218 32H404Q430 32 465 45T528 84Q556 112 582 158T622 236L634 268H658L574 0H-10ZM372 895Q372 902 374 909T385 923T407
930Q436 930 449 893L490 771L475 762L387 859Q372 876 372 895Z" />
<glyph unicode="&#xc9;" glyph-name="Eacute" horiz-adv-x="700" d="M-10 0L-2 32H74Q100 32 108 59L269 653Q278 680 250 680H174L182 712H734L688 484H663Q666 505 666 532Q666 575 659 604T637 650T603 673T558 680H394Q367 680 360 653L288 386H396Q414 386
429 391T454 403T474 424T489 447T501 475T509 501T517 528H542L454 200H429Q439 244 439 275Q439 310 426 330T379 350H278L199 59Q192 32 218 32H404Q430 32 465 45T528 84Q556 112 582 158T622 236L634 268H658L574 0H-10ZM466 774L572 897Q595 924 620 924Q648
924 648 895Q648 868 616 849L478 762L466 774Z" />
<glyph unicode="&#xca;" glyph-name="Ecircumflex" horiz-adv-x="700" d="M-10 0L-2 32H74Q100 32 108 59L269 653Q278 680 250 680H174L182 712H734L688 484H663Q666 505 666 532Q666 575 659 604T637 650T603 673T558 680H394Q367 680 360 653L288 386H396Q414
386 429 391T454 403T474 424T489 447T501 475T509 501T517 528H542L454 200H429Q439 244 439 275Q439 310 426 330T379 350H278L199 59Q192 32 218 32H404Q430 32 465 45T528 84Q556 112 582 158T622 236L634 268H658L574 0H-10ZM324 778Q430 830 500 920H540Q564
830 640 778L626 762Q602 771 565 800T504 858Q464 830 411 801T330 762L324 778Z" />
<glyph unicode="&#xcb;" glyph-name="Edieresis" horiz-adv-x="700" d="M-10 0L-2 32H74Q100 32 108 59L269 653Q278 680 250 680H174L182 712H734L688 484H663Q666 505 666 532Q666 575 659 604T637 650T603 673T558 680H394Q367 680 360 653L288 386H396Q414
386 429 391T454 403T474 424T489 447T501 475T509 501T517 528H542L454 200H429Q439 244 439 275Q439 310 426 330T379 350H278L199 59Q192 32 218 32H404Q430 32 465 45T528 84Q556 112 582 158T622 236L634 268H658L574 0H-10ZM556 828T556 850T571 887T608
902T645 887T660 850T645 813T608 798T571 813ZM352 828T352 850T367 887T404 902T441 887T456 850T441 813T404 798T367 813Z" />
<glyph unicode="&#xcc;" glyph-name="Igrave" horiz-adv-x="400" d="M-10 0L-2 32H74Q100 32 108 59L269 653Q278 680 250 680H174L182 712H478L470 680H394Q367 680 360 653L199 59Q192 32 218 32H294L286 0H-10ZM496 895Q496 902 498 909T509 923T531 930Q560
930 573 893L614 771L599 762L511 859Q496 876 496 895Z" />
<glyph unicode="&#xcd;" glyph-name="Iacute" horiz-adv-x="400" d="M-10 0L-2 32H74Q100 32 108 59L269 653Q278 680 250 680H174L182 712H478L470 680H394Q367 680 360 653L199 59Q192 32 218 32H294L286 0H-10ZM590 774L696 897Q719 924 744 924Q772 924 772
895Q772 868 740 849L602 762L590 774Z" />
<glyph unicode="&#xce;" glyph-name="Icircumflex" horiz-adv-x="400" d="M-10 0L-2 32H74Q100 32 108 59L269 653Q278 680 250 680H174L182 712H478L470 680H394Q367 680 360 653L199 59Q192 32 218 32H294L286 0H-10ZM448 778Q554 830 624 920H664Q688 830 764
778L750 762Q726 771 689 800T628 858Q588 830 535 801T454 762L448 778Z" />
<glyph unicode="&#xcf;" glyph-name="Idieresis" horiz-adv-x="400" d="M-10 0L-2 32H74Q100 32 108 59L269 653Q278 680 250 680H174L182 712H478L470 680H394Q367 680 360 653L199 59Q192 32 218 32H294L286 0H-10ZM680 828T680 850T695 887T732 902T769 887T784
850T769 813T732 798T695 813ZM476 828T476 850T491 887T528 902T565 887T580 850T565 813T528 798T491 813Z" />
<glyph unicode="&#xd1;" glyph-name="Ntilde" horiz-adv-x="790" d="M-10 0L-2 32H46Q78 32 102 59T137 126L280 653Q284 667 279 673T261 680H174L182 712H364L573 129L698 586Q705 610 705 629Q705 680 654 680H606L614 712H884L876 680H828Q800 680 774 655T737
586L573 -18H533L312 603H307L176 126Q170 104 170 83Q170 32 220 32H268L260 0H-10ZM418 810Q418 849 439 876T498 904Q530 904 583 884T660 864Q677 864 684 874T696 904H718Q718 865 697 838T638 810Q606 810 553 830T476 850Q459 850 452 840T440 810H418Z"
/>
<glyph unicode="&#xd2;" glyph-name="Ograve" horiz-adv-x="710" d="M188 192Q188 104 220 59T312 14Q348 14 382 29T440 68T486 125T521 187T546 248Q590 372 590 520Q590 608 558 653T466 698Q430 698 396 683T338 644T292 587T257 525T232 464Q188 340 188
192ZM92 248Q92 326 114 401T174 534T260 637T364 706T474 730Q538 730 587 693T661 595T686 462Q686 384 664 309T604 176T518 74T414 6T304 -18Q240 -18 191 19T117 116T92 248ZM388 895Q388 902 390 909T401 923T423 930Q452 930 465 893L506 771L491 762L403
859Q388 876 388 895Z" />
<glyph unicode="&#xd3;" glyph-name="Oacute" horiz-adv-x="710" d="M188 192Q188 104 220 59T312 14Q348 14 382 29T440 68T486 125T521 187T546 248Q590 372 590 520Q590 608 558 653T466 698Q430 698 396 683T338 644T292 587T257 525T232 464Q188 340 188
192ZM92 248Q92 326 114 401T174 534T260 637T364 706T474 730Q538 730 587 693T661 595T686 462Q686 384 664 309T604 176T518 74T414 6T304 -18Q240 -18 191 19T117 116T92 248ZM482 774L588 897Q611 924 636 924Q664 924 664 895Q664 868 632 849L494 762L482
774Z" />
<glyph unicode="&#xd4;" glyph-name="Ocircumflex" horiz-adv-x="710" d="M188 192Q188 104 220 59T312 14Q348 14 382 29T440 68T486 125T521 187T546 248Q590 372 590 520Q590 608 558 653T466 698Q430 698 396 683T338 644T292 587T257 525T232 464Q188 340
188 192ZM92 248Q92 326 114 401T174 534T260 637T364 706T474 730Q538 730 587 693T661 595T686 462Q686 384 664 309T604 176T518 74T414 6T304 -18Q240 -18 191 19T117 116T92 248ZM340 778Q446 830 516 920H556Q580 830 656 778L642 762Q618 771 581 800T520
858Q480 830 427 801T346 762L340 778Z" />
<glyph unicode="&#xd5;" glyph-name="Otilde" horiz-adv-x="710" d="M188 192Q188 104 220 59T312 14Q348 14 382 29T440 68T486 125T521 187T546 248Q590 372 590 520Q590 608 558 653T466 698Q430 698 396 683T338 644T292 587T257 525T232 464Q188 340 188
192ZM92 248Q92 326 114 401T174 534T260 637T364 706T474 730Q538 730 587 693T661 595T686 462Q686 384 664 309T604 176T518 74T414 6T304 -18Q240 -18 191 19T117 116T92 248ZM372 810Q372 849 393 876T452 904Q484 904 537 884T614 864Q631 864 638 874T650
904H672Q672 865 651 838T592 810Q560 810 507 830T430 850Q413 850 406 840T394 810H372Z" />
<glyph unicode="&#xd6;" glyph-name="Odieresis" horiz-adv-x="710" d="M188 192Q188 104 220 59T312 14Q348 14 382 29T440 68T486 125T521 187T546 248Q590 372 590 520Q590 608 558 653T466 698Q430 698 396 683T338 644T292 587T257 525T232 464Q188 340 188
192ZM92 248Q92 326 114 401T174 534T260 637T364 706T474 730Q538 730 587 693T661 595T686 462Q686 384 664 309T604 176T518 74T414 6T304 -18Q240 -18 191 19T117 116T92 248ZM572 828T572 850T587 887T624 902T661 887T676 850T661 813T624 798T587 813ZM368
828T368 850T383 887T420 902T457 887T472 850T457 813T420 798T383 813Z" />
<glyph unicode="&#xd7;" glyph-name="multiply" horiz-adv-x="940" d="M164 -18L447 264L164 546L196 578L478 295L760 578L792 546L509 264L792 -18L760 -50L478 233L196 -50L164 -18Z" />
<glyph unicode="&#xd8;" glyph-name="Oslash" horiz-adv-x="710" d="M44 6L127 96Q92 162 92 248Q92 326 114 401T174 534T260 637T364 706T474 730Q524 730 565 708T633 645L712 730L736 706L652 614Q686 548 686 462Q686 384 664 309T604 176T518 74T414 6T304
-18Q205 -18 145 66L68 -18L44 6ZM195 120Q207 68 237 41T312 14Q348 14 382 29T440 68T486 125T521 187T546 248Q590 372 590 520Q590 538 589 547L195 120ZM188 192Q188 172 189 163L583 590Q560 698 466 698Q430 698 396 683T338 644T292 587T257 525T232 464Q188
340 188 192Z" />
<glyph unicode="&#xd9;" glyph-name="Ugrave" horiz-adv-x="784" d="M130 176Q130 200 139 238L251 653Q254 667 250 673T232 680H156L164 712H460L452 680H376Q349 680 342 653L223 211Q214 173 214 154Q214 88 257 51T369 14Q416 14 455 30T519 73T561 131T588
198L695 588Q701 612 701 630Q701 651 690 665T650 680H602L610 712H880L872 680H824Q794 680 769 654T733 586L629 208Q616 158 596 120T545 49T468 -1T361 -18Q303 -18 258 -3T186 39T144 101T130 176ZM438 895Q438 902 440 909T451 923T473 930Q502 930 515
893L556 771L541 762L453 859Q438 876 438 895Z" />
<glyph unicode="&#xda;" glyph-name="Uacute" horiz-adv-x="784" d="M130 176Q130 200 139 238L251 653Q254 667 250 673T232 680H156L164 712H460L452 680H376Q349 680 342 653L223 211Q214 173 214 154Q214 88 257 51T369 14Q416 14 455 30T519 73T561 131T588
198L695 588Q701 612 701 630Q701 651 690 665T650 680H602L610 712H880L872 680H824Q794 680 769 654T733 586L629 208Q616 158 596 120T545 49T468 -1T361 -18Q303 -18 258 -3T186 39T144 101T130 176ZM532 774L638 897Q661 924 686 924Q714 924 714 895Q714
868 682 849L544 762L532 774Z" />
<glyph unicode="&#xdb;" glyph-name="Ucircumflex" horiz-adv-x="784" d="M130 176Q130 200 139 238L251 653Q254 667 250 673T232 680H156L164 712H460L452 680H376Q349 680 342 653L223 211Q214 173 214 154Q214 88 257 51T369 14Q416 14 455 30T519 73T561
131T588 198L695 588Q701 612 701 630Q701 651 690 665T650 680H602L610 712H880L872 680H824Q794 680 769 654T733 586L629 208Q616 158 596 120T545 49T468 -1T361 -18Q303 -18 258 -3T186 39T144 101T130 176ZM390 778Q496 830 566 920H606Q630 830 706 778L692
762Q668 771 631 800T570 858Q530 830 477 801T396 762L390 778Z" />
<glyph unicode="&#xdc;" glyph-name="Udieresis" horiz-adv-x="784" d="M130 176Q130 200 139 238L251 653Q254 667 250 673T232 680H156L164 712H460L452 680H376Q349 680 342 653L223 211Q214 173 214 154Q214 88 257 51T369 14Q416 14 455 30T519 73T561 131T588
198L695 588Q701 612 701 630Q701 651 690 665T650 680H602L610 712H880L872 680H824Q794 680 769 654T733 586L629 208Q616 158 596 120T545 49T468 -1T361 -18Q303 -18 258 -3T186 39T144 101T130 176ZM622 828T622 850T637 887T674 902T711 887T726 850T711
813T674 798T637 813ZM418 828T418 850T433 887T470 902T507 887T522 850T507 813T470 798T433 813Z" />
<glyph unicode="&#xdd;" glyph-name="Yacute" horiz-adv-x="720" d="M106 0L114 32H214Q240 32 247 58L317 318L238 636Q230 661 219 670T188 680H114L122 712H438L430 680H371Q346 680 334 665T329 633L395 355L567 553Q582 571 589 579T607 607T617 641Q617
680 569 680H526L534 712H830L822 680H775Q718 680 656 607L411 329L338 58Q330 32 356 32H456L448 0H106ZM478 774L584 897Q607 924 632 924Q660 924 660 895Q660 868 628 849L490 762L478 774Z" />
<glyph unicode="&#xde;" glyph-name="Thorn" horiz-adv-x="678" d="M-10 0L-2 32H74Q100 32 108 59L269 653Q278 680 250 680H174L183 712H514L506 680H394Q378 680 371 674T360 653L340 578H488Q561 582 607 539T654 420Q654 376 633 335T575 263T481 213T358
194H236L199 59Q195 45 199 39T218 32H330L322 0H-10ZM245 226H379Q418 226 455 245T516 298Q536 326 547 363T558 438Q558 492 532 519T466 546H358Q331 546 324 519L245 226Z" />
<glyph unicode="&#xdf;" glyph-name="germandbls" horiz-adv-x="480" d="M-34 -205L163 525Q177 576 203 615T260 676T322 709T382 720Q417 720 442 711T481 685T500 650T506 611Q506 566 480 527T414 464T331 434L330 430Q367 425 400 377T434 254Q434 211 416
158T366 64Q306 -12 218 -12Q183 -12 160 10T137 66Q137 77 140 89T149 115T170 136T202 144T229 133T239 108Q239 92 231 83T199 66Q181 61 181 43Q181 29 193 21T226 12Q263 12 295 51T344 149T362 270Q362 418 288 418H250L258 446H296Q338 446 372 471T424
532T442 607Q442 652 426 674T374 696Q358 696 341 690T305 669T268 624T238 553L32 -205H-34Z" />
<glyph unicode="&#xe0;" glyph-name="agrave" horiz-adv-x="536" d="M42 125Q42 186 60 243T101 335Q136 390 182 423T277 456Q308 456 333 435T369 368L373 366L395 444H461L376 129Q362 73 362 49Q362 22 380 22Q408 22 437 66T489 182L509 176Q498 142 484
112T451 52T409 5T362 -12Q304 -12 304 90L305 117L302 119Q294 100 280 80T247 38T203 2T154 -12Q101 -12 72 25T42 125ZM114 85Q114 56 125 34T160 12Q196 12 231 49T294 150Q314 196 329 250T344 340Q344 384 326 408T277 432Q260 432 244 421T214 393T190 358T170
320Q144 264 129 201T114 85ZM230 640Q230 652 238 664T266 676Q282 676 290 667T306 637L346 518L329 508L244 605Q230 620 230 640Z" />
<glyph unicode="&#xe1;" glyph-name="aacute" horiz-adv-x="536" d="M42 125Q42 186 60 243T101 335Q136 390 182 423T277 456Q308 456 333 435T369 368L373 366L395 444H461L376 129Q362 73 362 49Q362 22 380 22Q408 22 437 66T489 182L509 176Q498 142 484
112T451 52T409 5T362 -12Q304 -12 304 90L305 117L302 119Q294 100 280 80T247 38T203 2T154 -12Q101 -12 72 25T42 125ZM114 85Q114 56 125 34T160 12Q196 12 231 49T294 150Q314 196 329 250T344 340Q344 384 326 408T277 432Q260 432 244 421T214 393T190 358T170
320Q144 264 129 201T114 85ZM308 520L414 643Q437 670 462 670Q477 670 483 662T490 641Q490 616 458 595L320 508L308 520Z" />
<glyph unicode="&#xe2;" glyph-name="acircumflex" horiz-adv-x="536" d="M42 125Q42 186 60 243T101 335Q136 390 182 423T277 456Q308 456 333 435T369 368L373 366L395 444H461L376 129Q362 73 362 49Q362 22 380 22Q408 22 437 66T489 182L509 176Q498 142
484 112T451 52T409 5T362 -12Q304 -12 304 90L305 117L302 119Q294 100 280 80T247 38T203 2T154 -12Q101 -12 72 25T42 125ZM114 85Q114 56 125 34T160 12Q196 12 231 49T294 150Q314 196 329 250T344 340Q344 384 326 408T277 432Q260 432 244 421T214 393T190
358T170 320Q144 264 129 201T114 85ZM194 521Q283 568 346 672H386Q395 568 456 521L444 508Q384 544 347 600Q276 543 200 508L194 521Z" />
<glyph unicode="&#xe3;" glyph-name="atilde" horiz-adv-x="536" d="M42 125Q42 186 60 243T101 335Q136 390 182 423T277 456Q308 456 333 435T369 368L373 366L395 444H461L376 129Q362 73 362 49Q362 22 380 22Q408 22 437 66T489 182L509 176Q498 142 484
112T451 52T409 5T362 -12Q304 -12 304 90L305 117L302 119Q294 100 280 80T247 38T203 2T154 -12Q101 -12 72 25T42 125ZM114 85Q114 56 125 34T160 12Q196 12 231 49T294 150Q314 196 329 250T344 340Q344 384 326 408T277 432Q260 432 244 421T214 393T190 358T170
320Q144 264 129 201T114 85ZM214 556Q214 595 235 622T294 650Q320 650 344 640T390 620T432 610Q449 610 456 620T468 650H490Q490 611 469 584T410 556Q384 556 360 566T314 586T272 596Q255 596 248 586T236 556H214Z" />
<glyph unicode="&#xe4;" glyph-name="adieresis" horiz-adv-x="536" d="M42 125Q42 186 60 243T101 335Q136 390 182 423T277 456Q308 456 333 435T369 368L373 366L395 444H461L376 129Q362 73 362 49Q362 22 380 22Q408 22 437 66T489 182L509 176Q498 142 484
112T451 52T409 5T362 -12Q304 -12 304 90L305 117L302 119Q294 100 280 80T247 38T203 2T154 -12Q101 -12 72 25T42 125ZM114 85Q114 56 125 34T160 12Q196 12 231 49T294 150Q314 196 329 250T344 340Q344 384 326 408T277 432Q260 432 244 421T214 393T190 358T170
320Q144 264 129 201T114 85ZM390 574T390 596T405 633T442 648T479 633T494 596T479 559T442 544T405 559ZM202 574T202 596T217 633T254 648T291 633T306 596T291 559T254 544T217 559Z" />
<glyph unicode="&#xe5;" glyph-name="aring" horiz-adv-x="536" d="M42 125Q42 186 60 243T101 335Q136 390 182 423T277 456Q308 456 333 435T369 368L373 366L395 444H461L376 129Q362 73 362 49Q362 22 380 22Q408 22 437 66T489 182L509 176Q498 142 484 112T451
52T409 5T362 -12Q304 -12 304 90L305 117L302 119Q294 100 280 80T247 38T203 2T154 -12Q101 -12 72 25T42 125ZM114 85Q114 56 125 34T160 12Q196 12 231 49T294 150Q314 196 329 250T344 340Q344 384 326 408T277 432Q260 432 244 421T214 393T190 358T170 320Q144
264 129 201T114 85ZM250 558T250 598T278 666T347 694T416 666T444 598T416 529T347 500T278 529ZM274 630T274 598T295 545T347 524T399 545T420 598T399 650T347 670T295 650Z" />
<glyph unicode="&#xe6;" glyph-name="ae" horiz-adv-x="684" d="M114 85Q114 56 125 34T160 12Q196 12 231 49T294 150Q314 196 329 250T344 340Q344 384 326 408T277 432Q260 432 244 421T214 393T190 358T170 320Q144 264 129 201T114 85ZM408 240Q495 246 537
265Q568 279 588 309T608 379Q608 432 564 432Q543 432 523 420T486 388T458 349T436 310Q430 299 420 273T408 240ZM42 125Q42 186 60 243T101 335Q136 390 182 423T277 456Q308 456 333 435T369 368L373 366L395 444H461L439 366L446 368Q508 456 575 456Q611
456 633 434T656 375Q656 333 629 301T556 248Q498 222 402 215Q379 148 379 101Q379 12 457 12Q482 12 506 25T548 56T580 95T602 131T613 155L634 148Q611 82 559 35T452 -12Q416 -12 389 -2T348 21T323 55T310 88T305 117L302 119Q294 100 280 80T247 38T203
2T154 -12Q101 -12 72 25T42 125Z" />
<glyph unicode="&#xe7;" glyph-name="ccedilla" horiz-adv-x="424" d="M41 -148Q41 -130 53 -114T83 -97Q97 -97 104 -105T111 -128Q111 -138 104 -146T87 -154Q84 -154 81 -157T78 -165Q78 -190 117 -190Q144 -190 158 -174T172 -136T158 -83Q148 -62 148 -47Q148
-30 157 -13L159 -9Q110 2 81 49T52 158Q52 218 74 277T140 381Q175 418 210 437T290 456Q308 456 324 451T354 435T377 404T386 356Q386 326 369 306T329 286Q310 286 300 298T290 324Q290 352 322 376Q333 385 333 402Q333 412 322 422T286 432Q208 432 150 258Q139
226 132 176T124 98Q124 54 144 33T191 12T244 25T286 55T316 95T337 131T347 155L368 148Q344 80 295 34T186 -12H184L178 -21Q174 -28 174 -36Q174 -52 194 -72Q222 -100 222 -126Q222 -162 191 -187T115 -212Q86 -212 64 -195T41 -148Z" />
<glyph unicode="&#xe8;" glyph-name="egrave" horiz-adv-x="410" d="M52 158Q52 218 74 277T140 381Q212 456 290 456Q330 456 355 436T381 372Q381 294 280 247Q228 222 138 215Q124 159 124 98Q124 54 144 33T191 12T244 25T286 55T316 95T337 131T347 155L368
148Q344 80 295 34T186 -12T89 37T52 158ZM144 240Q217 245 261 265Q292 279 312 309T333 378Q333 406 322 419T291 432Q250 432 215 395T164 313Q152 279 144 240ZM220 640Q220 652 228 664T256 676Q272 676 280 667T296 637L336 518L319 508L234 605Q220 620
220 640Z" />
<glyph unicode="&#xe9;" glyph-name="eacute" horiz-adv-x="410" d="M52 158Q52 218 74 277T140 381Q212 456 290 456Q330 456 355 436T381 372Q381 294 280 247Q228 222 138 215Q124 159 124 98Q124 54 144 33T191 12T244 25T286 55T316 95T337 131T347 155L368
148Q344 80 295 34T186 -12T89 37T52 158ZM144 240Q217 245 261 265Q292 279 312 309T333 378Q333 406 322 419T291 432Q250 432 215 395T164 313Q152 279 144 240ZM298 520L404 643Q427 670 452 670Q467 670 473 662T480 641Q480 616 448 595L310 508L298 520Z"
/>
<glyph unicode="&#xea;" glyph-name="ecircumflex" horiz-adv-x="410" d="M52 158Q52 218 74 277T140 381Q212 456 290 456Q330 456 355 436T381 372Q381 294 280 247Q228 222 138 215Q124 159 124 98Q124 54 144 33T191 12T244 25T286 55T316 95T337 131T347
155L368 148Q344 80 295 34T186 -12T89 37T52 158ZM144 240Q217 245 261 265Q292 279 312 309T333 378Q333 406 322 419T291 432Q250 432 215 395T164 313Q152 279 144 240ZM184 521Q273 568 336 672H376Q385 568 446 521L434 508Q374 544 337 600Q266 543 190
508L184 521Z" />
<glyph unicode="&#xeb;" glyph-name="edieresis" horiz-adv-x="410" d="M52 158Q52 218 74 277T140 381Q212 456 290 456Q330 456 355 436T381 372Q381 294 280 247Q228 222 138 215Q124 159 124 98Q124 54 144 33T191 12T244 25T286 55T316 95T337 131T347 155L368
148Q344 80 295 34T186 -12T89 37T52 158ZM144 240Q217 245 261 265Q292 279 312 309T333 378Q333 406 322 419T291 432Q250 432 215 395T164 313Q152 279 144 240ZM380 574T380 596T395 633T432 648T469 633T484 596T469 559T432 544T395 559ZM192 574T192 596T207
633T244 648T281 633T296 596T281 559T244 544T207 559Z" />
<glyph unicode="&#xec;" glyph-name="igrave" horiz-adv-x="334" d="M36 268Q64 348 102 402T186 456Q212 456 230 431T249 360Q249 338 243 307T229 258L165 109Q149 74 149 50Q149 36 154 27T172 18Q190 18 209 35T244 81T270 133T290 182L310 176Q292 125 272
85T222 17T161 -12Q134 -12 116 12T97 84Q97 106 103 136T117 186L181 335Q197 370 197 394Q197 426 175 426Q156 426 137 409T102 363T76 310T56 262L36 268ZM388 640Q388 652 396 664T424 676Q440 676 448 667T464 637L504 518L487 508L402 605Q388 620 388 640Z"
/>
<glyph unicode="&#xed;" glyph-name="iacute" horiz-adv-x="334" d="M36 268Q64 348 102 402T186 456Q212 456 230 431T249 360Q249 338 243 307T229 258L165 109Q149 74 149 50Q149 36 154 27T172 18Q190 18 209 35T244 81T270 133T290 182L310 176Q292 125 272
85T222 17T161 -12Q134 -12 116 12T97 84Q97 106 103 136T117 186L181 335Q197 370 197 394Q197 426 175 426Q156 426 137 409T102 363T76 310T56 262L36 268ZM466 520L572 643Q595 670 620 670Q635 670 641 662T648 641Q648 616 616 595L478 508L466 520Z" />
<glyph unicode="&#xee;" glyph-name="icircumflex" horiz-adv-x="334" d="M36 268Q64 348 102 402T186 456Q212 456 230 431T249 360Q249 338 243 307T229 258L165 109Q149 74 149 50Q149 36 154 27T172 18Q190 18 209 35T244 81T270 133T290 182L310 176Q292
125 272 85T222 17T161 -12Q134 -12 116 12T97 84Q97 106 103 136T117 186L181 335Q197 370 197 394Q197 426 175 426Q156 426 137 409T102 363T76 310T56 262L36 268ZM352 521Q441 568 504 672H544Q553 568 614 521L602 508Q542 544 505 600Q434 543 358 508L352
521Z" />
<glyph unicode="&#xef;" glyph-name="idieresis" horiz-adv-x="334" d="M280 574T280 596T295 633T332 648T369 633T384 596T369 559T332 544T295 559ZM116 574T116 596T131 633T168 648T205 633T220 596T205 559T168 544T131 559ZM36 268Q64 348 102 402T186
456Q212 456 230 431T249 360Q249 338 243 307T229 258L165 109Q149 74 149 50Q149 36 154 27T172 18Q190 18 209 35T244 81T270 133T290 182L310 176Q292 125 272 85T222 17T161 -12Q134 -12 116 12T97 84Q97 106 103 136T117 186L181 335Q197 370 197 394Q197
426 175 426Q156 426 137 409T102 363T76 310T56 262L36 268Z" />
<glyph unicode="&#xf0;" glyph-name="eth" horiz-adv-x="494" d="M52 164Q52 216 72 269T124 363T201 430T294 456Q339 456 371 424L380 428Q380 480 359 536Q353 552 350 559L226 513L216 540L337 584Q313 636 265 702H354Q386 656 405 609L526 653L536 626L416
582L423 564Q436 530 444 481T452 397Q452 345 438 284T406 180Q369 94 311 41T186 -12Q133 -12 93 34T52 164ZM124 104Q124 63 141 38T190 12Q212 12 230 22T262 51T286 87T307 130Q328 178 341 235T354 340Q354 381 338 406T290 432Q268 432 250 422T217 394T192
357T171 314Q150 266 137 209T124 104Z" />
<glyph unicode="&#xf1;" glyph-name="ntilde" horiz-adv-x="572" d="M36 268Q102 456 183 456Q241 456 241 354Q241 334 232 293T215 233L218 230Q222 236 235 261T257 303T282 344T313 387T346 421T383 447T422 456Q452 456 469 432T487 360Q487 338 481 307T467
258L403 109Q387 74 387 50Q387 36 392 27T410 18Q428 18 447 35T482 81T508 133T528 182L548 176Q530 125 510 85T460 17T399 -12Q372 -12 354 12T335 84Q335 106 341 136T355 186L419 335Q435 370 435 394Q435 426 413 426Q352 426 286 313Q246 246 215 179T170
66L150 0H84L168 310Q183 370 183 395Q183 422 164 422Q144 422 123 397T86 338T56 262L36 268ZM242 556Q242 595 263 622T322 650Q348 650 372 640T418 620T460 610Q477 610 484 620T496 650H518Q518 611 497 584T438 556Q412 556 388 566T342 586T300 596Q283
596 276 586T264 556H242Z" />
<glyph unicode="&#xf2;" glyph-name="ograve" horiz-adv-x="462" d="M124 104Q124 63 141 38T190 12Q212 12 230 22T262 51T286 87T307 130Q328 178 341 235T354 340Q354 381 338 406T290 432Q268 432 250 422T217 394T192 357T171 314Q150 266 137 209T124 104ZM52
164Q52 216 72 269T124 363T201 430T294 456Q318 456 341 445T384 413T414 358T426 280Q426 228 407 175T355 81T278 14T186 -12Q133 -12 93 34T52 164ZM222 640Q222 652 230 664T258 676Q274 676 282 667T298 637L338 518L321 508L236 605Q222 620 222 640Z" />
<glyph unicode="&#xf3;" glyph-name="oacute" horiz-adv-x="462" d="M124 104Q124 63 141 38T190 12Q212 12 230 22T262 51T286 87T307 130Q328 178 341 235T354 340Q354 381 338 406T290 432Q268 432 250 422T217 394T192 357T171 314Q150 266 137 209T124 104ZM52
164Q52 216 72 269T124 363T201 430T294 456Q318 456 341 445T384 413T414 358T426 280Q426 228 407 175T355 81T278 14T186 -12Q133 -12 93 34T52 164ZM300 520L406 643Q429 670 454 670Q469 670 475 662T482 641Q482 616 450 595L312 508L300 520Z" />
<glyph unicode="&#xf4;" glyph-name="ocircumflex" horiz-adv-x="462" d="M124 104Q124 63 141 38T190 12Q212 12 230 22T262 51T286 87T307 130Q328 178 341 235T354 340Q354 381 338 406T290 432Q268 432 250 422T217 394T192 357T171 314Q150 266 137 209T124
104ZM52 164Q52 216 72 269T124 363T201 430T294 456Q318 456 341 445T384 413T414 358T426 280Q426 228 407 175T355 81T278 14T186 -12Q133 -12 93 34T52 164ZM186 521Q275 568 338 672H378Q387 568 448 521L436 508Q376 544 339 600Q268 543 192 508L186 521Z"
/>
<glyph unicode="&#xf5;" glyph-name="otilde" horiz-adv-x="462" d="M124 104Q124 63 141 38T190 12Q212 12 230 22T262 51T286 87T307 130Q328 178 341 235T354 340Q354 381 338 406T290 432Q268 432 250 422T217 394T192 357T171 314Q150 266 137 209T124 104ZM52
164Q52 216 72 269T124 363T201 430T294 456Q318 456 341 445T384 413T414 358T426 280Q426 228 407 175T355 81T278 14T186 -12Q133 -12 93 34T52 164ZM206 556Q206 595 227 622T286 650Q312 650 336 640T382 620T424 610Q441 610 448 620T460 650H482Q482 611
461 584T402 556Q376 556 352 566T306 586T264 596Q247 596 240 586T228 556H206Z" />
<glyph unicode="&#xf6;" glyph-name="odieresis" horiz-adv-x="462" d="M124 104Q124 63 141 38T190 12Q212 12 230 22T262 51T286 87T307 130Q328 178 341 235T354 340Q354 381 338 406T290 432Q268 432 250 422T217 394T192 357T171 314Q150 266 137 209T124
104ZM52 164Q52 216 72 269T124 363T201 430T294 456Q318 456 341 445T384 413T414 358T426 280Q426 228 407 175T355 81T278 14T186 -12Q133 -12 93 34T52 164ZM382 574T382 596T397 633T434 648T471 633T486 596T471 559T434 544T397 559ZM194 574T194 596T209
633T246 648T283 633T298 596T283 559T246 544T209 559Z" />
<glyph unicode="&#xf7;" glyph-name="divide" horiz-adv-x="940" d="M416 491T416 518T433 562T478 580T522 563T540 518T523 474T478 456T434 473ZM416 -21T416 6T433 50T478 68T522 51T540 6T523 -38T478 -56T434 -39ZM56 244V284H900V244H56Z" />
<glyph unicode="&#xf8;" glyph-name="oslash" horiz-adv-x="462" d="M24 4L75 60Q52 104 52 164Q52 216 72 269T124 363T201 430T294 456Q354 456 392 403L440 456L458 438L405 381Q426 338 426 280Q426 228 407 175T355 81T278 14T186 -12Q127 -12 89 39L42 -12L24
4ZM124 113L353 361Q349 394 334 413T290 432Q268 432 250 422T217 394T192 357T171 314Q152 268 139 214T124 113ZM126 79Q130 48 147 30T190 12Q212 12 230 22T262 51T286 87T307 130Q349 228 354 325L126 79Z" />
<glyph unicode="&#xf9;" glyph-name="ugrave" horiz-adv-x="572" d="M36 268Q54 319 74 359T124 427T185 456Q212 456 230 432T249 360Q249 338 243 308T229 258L165 109Q149 74 149 50Q149 18 171 18Q232 18 298 131Q338 198 369 265T414 378L434 444H500L416
134Q401 74 401 49Q401 22 420 22Q440 22 461 47T498 106T528 182L548 176Q482 -12 401 -12Q343 -12 343 90Q343 110 352 151T369 211L366 214Q362 208 349 183T327 141T302 100T271 57T238 23T201 -3T162 -12Q132 -12 115 12T97 84Q97 106 103 137T117 186L181
335Q197 370 197 394Q197 408 192 417T174 426Q156 426 137 409T102 363T76 311T56 262L36 268ZM256 640Q256 652 264 664T292 676Q308 676 316 667T332 637L372 518L355 508L270 605Q256 620 256 640Z" />
<glyph unicode="&#xfa;" glyph-name="uacute" horiz-adv-x="572" d="M36 268Q54 319 74 359T124 427T185 456Q212 456 230 432T249 360Q249 338 243 308T229 258L165 109Q149 74 149 50Q149 18 171 18Q232 18 298 131Q338 198 369 265T414 378L434 444H500L416
134Q401 74 401 49Q401 22 420 22Q440 22 461 47T498 106T528 182L548 176Q482 -12 401 -12Q343 -12 343 90Q343 110 352 151T369 211L366 214Q362 208 349 183T327 141T302 100T271 57T238 23T201 -3T162 -12Q132 -12 115 12T97 84Q97 106 103 137T117 186L181
335Q197 370 197 394Q197 408 192 417T174 426Q156 426 137 409T102 363T76 311T56 262L36 268ZM334 520L440 643Q463 670 488 670Q503 670 509 662T516 641Q516 616 484 595L346 508L334 520Z" />
<glyph unicode="&#xfb;" glyph-name="ucircumflex" horiz-adv-x="572" d="M36 268Q54 319 74 359T124 427T185 456Q212 456 230 432T249 360Q249 338 243 308T229 258L165 109Q149 74 149 50Q149 18 171 18Q232 18 298 131Q338 198 369 265T414 378L434 444H500L416
134Q401 74 401 49Q401 22 420 22Q440 22 461 47T498 106T528 182L548 176Q482 -12 401 -12Q343 -12 343 90Q343 110 352 151T369 211L366 214Q362 208 349 183T327 141T302 100T271 57T238 23T201 -3T162 -12Q132 -12 115 12T97 84Q97 106 103 137T117 186L181
335Q197 370 197 394Q197 408 192 417T174 426Q156 426 137 409T102 363T76 311T56 262L36 268ZM220 521Q309 568 372 672H412Q421 568 482 521L470 508Q410 544 373 600Q302 543 226 508L220 521Z" />
<glyph unicode="&#xfc;" glyph-name="udieresis" horiz-adv-x="572" d="M36 268Q54 319 74 359T124 427T185 456Q212 456 230 432T249 360Q249 338 243 308T229 258L165 109Q149 74 149 50Q149 18 171 18Q232 18 298 131Q338 198 369 265T414 378L434 444H500L416
134Q401 74 401 49Q401 22 420 22Q440 22 461 47T498 106T528 182L548 176Q482 -12 401 -12Q343 -12 343 90Q343 110 352 151T369 211L366 214Q362 208 349 183T327 141T302 100T271 57T238 23T201 -3T162 -12Q132 -12 115 12T97 84Q97 106 103 137T117 186L181
335Q197 370 197 394Q197 408 192 417T174 426Q156 426 137 409T102 363T76 311T56 262L36 268ZM416 574T416 596T431 633T468 648T505 633T520 596T505 559T468 544T431 559ZM228 574T228 596T243 633T280 648T317 633T332 596T317 559T280 544T243 559Z" />
<glyph unicode="&#xfd;" glyph-name="yacute" horiz-adv-x="512" d="M24 -150Q24 -122 40 -106T78 -90Q98 -90 108 -102T118 -130Q118 -155 99 -170Q90 -178 90 -192Q90 -224 133 -224Q168 -224 193 -213T243 -170Q280 -124 309 -16L352 145L346 147Q314 82 266
35T174 -12Q141 -12 119 13T97 84Q97 106 103 137T117 186L181 335Q197 370 197 394Q197 408 192 417T174 426Q156 426 137 409T102 363T76 311T56 262L36 268Q54 319 74 359T124 427T185 456Q212 456 230 432T249 360Q249 338 243 308T229 258L165 109Q149 74
149 50Q149 12 184 12Q212 12 246 43T310 122T364 224T402 324L435 444H501L383 0Q372 -43 346 -95T283 -186Q252 -219 215 -233T144 -248Q90 -248 57 -222T24 -150ZM330 520L436 643Q459 670 484 670Q499 670 505 662T512 641Q512 616 480 595L342 508L330 520Z"
/>
<glyph unicode="&#xfe;" glyph-name="thorn" horiz-adv-x="540" d="M200 104Q200 60 218 36T267 12Q284 12 300 23T330 51T354 86T374 124Q400 180 415 243T430 359Q430 388 419 410T384 432Q348 432 313 395T250 294Q230 248 215 194T200 104ZM-75 -232L-67 -204H7Q19
-204 25 -199T34 -182L263 666Q266 678 262 683T247 688H159L166 712H343L238 327L242 325Q250 344 264 364T297 406T341 442T390 456Q443 456 472 419T502 319Q502 258 484 201T443 109Q408 54 362 21T267 -12Q236 -12 211 9T175 76L171 78L102 -182Q99 -194 102
-199T117 -204H239L231 -232H-75Z" />
<glyph unicode="&#xff;" glyph-name="ydieresis" horiz-adv-x="512" d="M24 -150Q24 -122 40 -106T78 -90Q98 -90 108 -102T118 -130Q118 -155 99 -170Q90 -178 90 -192Q90 -224 133 -224Q168 -224 193 -213T243 -170Q280 -124 309 -16L352 145L346 147Q314 82
266 35T174 -12Q141 -12 119 13T97 84Q97 106 103 137T117 186L181 335Q197 370 197 394Q197 408 192 417T174 426Q156 426 137 409T102 363T76 311T56 262L36 268Q54 319 74 359T124 427T185 456Q212 456 230 432T249 360Q249 338 243 308T229 258L165 109Q149
74 149 50Q149 12 184 12Q212 12 246 43T310 122T364 224T402 324L435 444H501L383 0Q372 -43 346 -95T283 -186Q252 -219 215 -233T144 -248Q90 -248 57 -222T24 -150ZM412 574T412 596T427 633T464 648T501 633T516 596T501 559T464 544T427 559ZM224 574T224
596T239 633T276 648T313 633T328 596T313 559T276 544T239 559Z" />
<glyph unicode="&#x2013;" glyph-name="endash" horiz-adv-x="620" d="M84 244V280H584V244H84Z" />
<glyph unicode="&#x2014;" glyph-name="emdash" horiz-adv-x="1000" d="M92 234V270H972V234H92Z" />
<glyph unicode="&#x2018;" glyph-name="quoteleft" horiz-adv-x="280" d="M148 503Q148 544 160 580T189 640T230 684T270 714T304 730L312 714Q290 703 271 690T232 658T201 616T189 567Q189 552 198 544Q206 537 227 537T261 522T274 485Q274 456 257 439T213
422Q182 422 165 448T148 503Z" />
<glyph unicode="&#x2019;" glyph-name="quoteright" horiz-adv-x="280" d="M144 438Q166 449 185 462T224 494T255 536T267 585Q267 600 258 608Q250 615 229 615T195 630T182 667Q182 696 199 713T243 730Q274 730 291 704T308 649Q308 608 296 572T267 512T226
468T186 438T152 422L144 438Z" />
<glyph unicode="&#x201a;" glyph-name="quotesinglbase" horiz-adv-x="280" d="M22 -152Q44 -141 63 -128T102 -96T133 -54T145 -5Q145 10 136 18Q128 25 107 25T73 40T60 77Q60 106 77 123T121 140Q152 140 169 114T186 59Q186 18 174 -18T145 -78T104 -122T64
-152T30 -168L22 -152Z" />
<glyph unicode="&#x201c;" glyph-name="quotedblleft" horiz-adv-x="440" d="M148 503Q148 544 160 580T189 640T230 684T270 714T304 730L312 714Q290 703 271 690T232 658T201 616T189 567Q189 552 198 544Q206 537 227 537T261 522T274 485Q274 456 257 439T213
422Q182 422 165 448T148 503ZM308 503Q308 544 320 580T349 640T390 684T430 714T464 730L472 714Q450 703 431 690T392 658T361 616T349 567Q349 552 358 544Q366 537 387 537T421 522T434 485Q434 456 417 439T373 422Q342 422 325 448T308 503Z" />
<glyph unicode="&#x201d;" glyph-name="quotedblright" horiz-adv-x="440" d="M144 438Q166 449 185 462T224 494T255 536T267 585Q267 600 258 608Q250 615 229 615T195 630T182 667Q182 696 199 713T243 730Q274 730 291 704T308 649Q308 608 296 572T267 512T226
468T186 438T152 422L144 438ZM304 438Q326 449 345 462T384 494T415 536T427 585Q427 600 418 608Q410 615 389 615T355 630T342 667Q342 696 359 713T403 730Q434 730 451 704T468 649Q468 608 456 572T427 512T386 468T346 438T312 422L304 438Z" />
<glyph unicode="&#x201e;" glyph-name="quotedblbase" horiz-adv-x="440" d="M22 -152Q44 -141 63 -128T102 -96T133 -54T145 -5Q145 10 136 18Q128 25 107 25T73 40T60 77Q60 106 77 123T121 140Q152 140 169 114T186 59Q186 18 174 -18T145 -78T104 -122T64
-152T30 -168L22 -152ZM174 -152Q196 -141 215 -128T254 -96T285 -54T297 -5Q297 10 288 18Q280 25 259 25T225 40T212 77Q212 106 229 123T273 140Q304 140 321 114T338 59Q338 18 326 -18T297 -78T256 -122T216 -152T182 -168L174 -152Z" />
<glyph unicode="&#x2022;" glyph-name="bullet" horiz-adv-x="500" d="M176 306T176 354T209 435T290 468T371 435T404 354T371 273T290 240T209 273Z" />
<glyph unicode="&#x2039;" glyph-name="guilsinglleft" horiz-adv-x="330" d="M54 228Q74 242 94 259T129 288T169 323T206 356T251 397T295 438L306 428L144 228L198 28L181 18Q175 29 159 58T137 99T118 132T97 167T78 197T54 228Z" />
<glyph unicode="&#x203a;" glyph-name="guilsinglright" horiz-adv-x="330" d="M32 28L194 228L140 428L157 438Q163 427 179 398T201 357T220 324T241 289T260 259T284 228Q264 214 244 197T209 168T169 133T132 100T87 59T43 18L32 28Z" />
</font>
</defs>
</svg>
